<svg xmlns="http://www.w3.org/2000/svg" xmlns:xlink="http://www.w3.org/1999/xlink" width="600" height="400" viewBox="0 0 2400 1600">
<defs>
  <clipPath id="clip080">
    <rect x="0" y="0" width="2400" height="1600"></rect>
  </clipPath>
</defs>
<path clip-path="url(#clip080)" d="M0 1600 L2400 1600 L2400 0 L0 0  Z" fill="#ffffff" fill-rule="evenodd" fill-opacity="1"></path>
<defs>
  <clipPath id="clip081">
    <rect x="480" y="0" width="1681" height="1600"></rect>
  </clipPath>
</defs>
<path clip-path="url(#clip080)" d="M369.703 1423.18 L2352.76 1423.18 L2352.76 123.472 L369.703 123.472  Z" fill="#ffffff" fill-rule="evenodd" fill-opacity="1"></path>
<defs>
  <clipPath id="clip082">
    <rect x="369" y="123" width="1984" height="1301"></rect>
  </clipPath>
</defs>
<polyline clip-path="url(#clip082)" style="stroke:#000000; stroke-linecap:round; stroke-linejoin:round; stroke-width:2; stroke-opacity:0.1; fill:none" points="422.078,1423.18 422.078,123.472 "></polyline>
<polyline clip-path="url(#clip082)" style="stroke:#000000; stroke-linecap:round; stroke-linejoin:round; stroke-width:2; stroke-opacity:0.1; fill:none" points="796.989,1423.18 796.989,123.472 "></polyline>
<polyline clip-path="url(#clip082)" style="stroke:#000000; stroke-linecap:round; stroke-linejoin:round; stroke-width:2; stroke-opacity:0.1; fill:none" points="1171.9,1423.18 1171.9,123.472 "></polyline>
<polyline clip-path="url(#clip082)" style="stroke:#000000; stroke-linecap:round; stroke-linejoin:round; stroke-width:2; stroke-opacity:0.1; fill:none" points="1546.81,1423.18 1546.81,123.472 "></polyline>
<polyline clip-path="url(#clip082)" style="stroke:#000000; stroke-linecap:round; stroke-linejoin:round; stroke-width:2; stroke-opacity:0.1; fill:none" points="1921.72,1423.18 1921.72,123.472 "></polyline>
<polyline clip-path="url(#clip082)" style="stroke:#000000; stroke-linecap:round; stroke-linejoin:round; stroke-width:2; stroke-opacity:0.1; fill:none" points="2296.63,1423.18 2296.63,123.472 "></polyline>
<polyline clip-path="url(#clip082)" style="stroke:#000000; stroke-linecap:round; stroke-linejoin:round; stroke-width:2; stroke-opacity:0.1; fill:none" points="369.703,1216.6 2352.76,1216.6 "></polyline>
<polyline clip-path="url(#clip082)" style="stroke:#000000; stroke-linecap:round; stroke-linejoin:round; stroke-width:2; stroke-opacity:0.1; fill:none" points="369.703,962.666 2352.76,962.666 "></polyline>
<polyline clip-path="url(#clip082)" style="stroke:#000000; stroke-linecap:round; stroke-linejoin:round; stroke-width:2; stroke-opacity:0.1; fill:none" points="369.703,708.731 2352.76,708.731 "></polyline>
<polyline clip-path="url(#clip082)" style="stroke:#000000; stroke-linecap:round; stroke-linejoin:round; stroke-width:2; stroke-opacity:0.1; fill:none" points="369.703,454.797 2352.76,454.797 "></polyline>
<polyline clip-path="url(#clip082)" style="stroke:#000000; stroke-linecap:round; stroke-linejoin:round; stroke-width:2; stroke-opacity:0.1; fill:none" points="369.703,200.862 2352.76,200.862 "></polyline>
<polyline clip-path="url(#clip080)" style="stroke:#000000; stroke-linecap:round; stroke-linejoin:round; stroke-width:4; stroke-opacity:1; fill:none" points="369.703,1423.18 2352.76,1423.18 "></polyline>
<polyline clip-path="url(#clip080)" style="stroke:#000000; stroke-linecap:round; stroke-linejoin:round; stroke-width:4; stroke-opacity:1; fill:none" points="422.078,1423.18 422.078,1404.28 "></polyline>
<polyline clip-path="url(#clip080)" style="stroke:#000000; stroke-linecap:round; stroke-linejoin:round; stroke-width:4; stroke-opacity:1; fill:none" points="796.989,1423.18 796.989,1404.28 "></polyline>
<polyline clip-path="url(#clip080)" style="stroke:#000000; stroke-linecap:round; stroke-linejoin:round; stroke-width:4; stroke-opacity:1; fill:none" points="1171.9,1423.18 1171.9,1404.28 "></polyline>
<polyline clip-path="url(#clip080)" style="stroke:#000000; stroke-linecap:round; stroke-linejoin:round; stroke-width:4; stroke-opacity:1; fill:none" points="1546.81,1423.18 1546.81,1404.28 "></polyline>
<polyline clip-path="url(#clip080)" style="stroke:#000000; stroke-linecap:round; stroke-linejoin:round; stroke-width:4; stroke-opacity:1; fill:none" points="1921.72,1423.18 1921.72,1404.28 "></polyline>
<polyline clip-path="url(#clip080)" style="stroke:#000000; stroke-linecap:round; stroke-linejoin:round; stroke-width:4; stroke-opacity:1; fill:none" points="2296.63,1423.18 2296.63,1404.28 "></polyline>
<path clip-path="url(#clip080)" d="M422.078 1454.1 Q418.467 1454.1 416.639 1457.66 Q414.833 1461.2 414.833 1468.33 Q414.833 1475.44 416.639 1479.01 Q418.467 1482.55 422.078 1482.55 Q425.713 1482.55 427.518 1479.01 Q429.347 1475.44 429.347 1468.33 Q429.347 1461.2 427.518 1457.66 Q425.713 1454.1 422.078 1454.1 M422.078 1450.39 Q427.889 1450.39 430.944 1455 Q434.023 1459.58 434.023 1468.33 Q434.023 1477.06 430.944 1481.67 Q427.889 1486.25 422.078 1486.25 Q416.268 1486.25 413.19 1481.67 Q410.134 1477.06 410.134 1468.33 Q410.134 1459.58 413.19 1455 Q416.268 1450.39 422.078 1450.39 Z" fill="#000000" fill-rule="nonzero" fill-opacity="1"></path><path clip-path="url(#clip080)" d="M756.596 1481.64 L764.235 1481.64 L764.235 1455.28 L755.925 1456.95 L755.925 1452.69 L764.188 1451.02 L768.864 1451.02 L768.864 1481.64 L776.503 1481.64 L776.503 1485.58 L756.596 1485.58 L756.596 1481.64 Z" fill="#000000" fill-rule="nonzero" fill-opacity="1"></path><path clip-path="url(#clip080)" d="M795.947 1454.1 Q792.336 1454.1 790.508 1457.66 Q788.702 1461.2 788.702 1468.33 Q788.702 1475.44 790.508 1479.01 Q792.336 1482.55 795.947 1482.55 Q799.582 1482.55 801.387 1479.01 Q803.216 1475.44 803.216 1468.33 Q803.216 1461.2 801.387 1457.66 Q799.582 1454.1 795.947 1454.1 M795.947 1450.39 Q801.758 1450.39 804.813 1455 Q807.892 1459.58 807.892 1468.33 Q807.892 1477.06 804.813 1481.67 Q801.758 1486.25 795.947 1486.25 Q790.137 1486.25 787.059 1481.67 Q784.003 1477.06 784.003 1468.33 Q784.003 1459.58 787.059 1455 Q790.137 1450.39 795.947 1450.39 Z" fill="#000000" fill-rule="nonzero" fill-opacity="1"></path><path clip-path="url(#clip080)" d="M826.109 1454.1 Q822.498 1454.1 820.67 1457.66 Q818.864 1461.2 818.864 1468.33 Q818.864 1475.44 820.67 1479.01 Q822.498 1482.55 826.109 1482.55 Q829.744 1482.55 831.549 1479.01 Q833.378 1475.44 833.378 1468.33 Q833.378 1461.2 831.549 1457.66 Q829.744 1454.1 826.109 1454.1 M826.109 1450.39 Q831.919 1450.39 834.975 1455 Q838.054 1459.58 838.054 1468.33 Q838.054 1477.06 834.975 1481.67 Q831.919 1486.25 826.109 1486.25 Q820.299 1486.25 817.22 1481.67 Q814.165 1477.06 814.165 1468.33 Q814.165 1459.58 817.22 1455 Q820.299 1450.39 826.109 1450.39 Z" fill="#000000" fill-rule="nonzero" fill-opacity="1"></path><path clip-path="url(#clip080)" d="M1135.59 1481.64 L1151.91 1481.64 L1151.91 1485.58 L1129.97 1485.58 L1129.97 1481.64 Q1132.63 1478.89 1137.21 1474.26 Q1141.82 1469.61 1143 1468.27 Q1145.24 1465.74 1146.12 1464.01 Q1147.03 1462.25 1147.03 1460.56 Q1147.03 1457.8 1145.08 1456.07 Q1143.16 1454.33 1140.06 1454.33 Q1137.86 1454.33 1135.41 1455.09 Q1132.98 1455.86 1130.2 1457.41 L1130.2 1452.69 Q1133.02 1451.55 1135.48 1450.97 Q1137.93 1450.39 1139.97 1450.39 Q1145.34 1450.39 1148.53 1453.08 Q1151.73 1455.77 1151.73 1460.26 Q1151.73 1462.39 1150.92 1464.31 Q1150.13 1466.2 1148.02 1468.8 Q1147.44 1469.47 1144.34 1472.69 Q1141.24 1475.88 1135.59 1481.64 Z" fill="#000000" fill-rule="nonzero" fill-opacity="1"></path><path clip-path="url(#clip080)" d="M1171.73 1454.1 Q1168.12 1454.1 1166.29 1457.66 Q1164.48 1461.2 1164.48 1468.33 Q1164.48 1475.44 1166.29 1479.01 Q1168.12 1482.55 1171.73 1482.55 Q1175.36 1482.55 1177.17 1479.01 Q1178.99 1475.44 1178.99 1468.33 Q1178.99 1461.2 1177.17 1457.66 Q1175.36 1454.1 1171.73 1454.1 M1171.73 1450.39 Q1177.54 1450.39 1180.59 1455 Q1183.67 1459.58 1183.67 1468.33 Q1183.67 1477.06 1180.59 1481.67 Q1177.54 1486.25 1171.73 1486.25 Q1165.92 1486.25 1162.84 1481.67 Q1159.78 1477.06 1159.78 1468.33 Q1159.78 1459.58 1162.84 1455 Q1165.92 1450.39 1171.73 1450.39 Z" fill="#000000" fill-rule="nonzero" fill-opacity="1"></path><path clip-path="url(#clip080)" d="M1201.89 1454.1 Q1198.28 1454.1 1196.45 1457.66 Q1194.64 1461.2 1194.64 1468.33 Q1194.64 1475.44 1196.45 1479.01 Q1198.28 1482.55 1201.89 1482.55 Q1205.52 1482.55 1207.33 1479.01 Q1209.16 1475.44 1209.16 1468.33 Q1209.16 1461.2 1207.33 1457.66 Q1205.52 1454.1 1201.89 1454.1 M1201.89 1450.39 Q1207.7 1450.39 1210.75 1455 Q1213.83 1459.58 1213.83 1468.33 Q1213.83 1477.06 1210.75 1481.67 Q1207.7 1486.25 1201.89 1486.25 Q1196.08 1486.25 1193 1481.67 Q1189.94 1477.06 1189.94 1468.33 Q1189.94 1459.58 1193 1455 Q1196.08 1450.39 1201.89 1450.39 Z" fill="#000000" fill-rule="nonzero" fill-opacity="1"></path><path clip-path="url(#clip080)" d="M1520.57 1466.95 Q1523.93 1467.66 1525.8 1469.93 Q1527.7 1472.2 1527.7 1475.53 Q1527.7 1480.65 1524.18 1483.45 Q1520.66 1486.25 1514.18 1486.25 Q1512.01 1486.25 1509.69 1485.81 Q1507.4 1485.39 1504.95 1484.54 L1504.95 1480.02 Q1506.89 1481.16 1509.21 1481.74 Q1511.52 1482.32 1514.04 1482.32 Q1518.44 1482.32 1520.73 1480.58 Q1523.05 1478.84 1523.05 1475.53 Q1523.05 1472.48 1520.9 1470.77 Q1518.77 1469.03 1514.95 1469.03 L1510.92 1469.03 L1510.92 1465.19 L1515.13 1465.19 Q1518.58 1465.19 1520.41 1463.82 Q1522.24 1462.43 1522.24 1459.84 Q1522.24 1457.18 1520.34 1455.77 Q1518.47 1454.33 1514.95 1454.33 Q1513.03 1454.33 1510.83 1454.75 Q1508.63 1455.16 1505.99 1456.04 L1505.99 1451.88 Q1508.65 1451.14 1510.97 1450.77 Q1513.3 1450.39 1515.36 1450.39 Q1520.69 1450.39 1523.79 1452.83 Q1526.89 1455.23 1526.89 1459.35 Q1526.89 1462.22 1525.25 1464.21 Q1523.6 1466.18 1520.57 1466.95 Z" fill="#000000" fill-rule="nonzero" fill-opacity="1"></path><path clip-path="url(#clip080)" d="M1546.57 1454.1 Q1542.96 1454.1 1541.13 1457.66 Q1539.32 1461.2 1539.32 1468.33 Q1539.32 1475.44 1541.13 1479.01 Q1542.96 1482.55 1546.57 1482.55 Q1550.2 1482.55 1552.01 1479.01 Q1553.84 1475.44 1553.84 1468.33 Q1553.84 1461.2 1552.01 1457.66 Q1550.2 1454.1 1546.57 1454.1 M1546.57 1450.39 Q1552.38 1450.39 1555.43 1455 Q1558.51 1459.58 1558.51 1468.33 Q1558.51 1477.06 1555.43 1481.67 Q1552.38 1486.25 1546.57 1486.25 Q1540.76 1486.25 1537.68 1481.67 Q1534.62 1477.06 1534.62 1468.33 Q1534.62 1459.58 1537.68 1455 Q1540.76 1450.39 1546.57 1450.39 Z" fill="#000000" fill-rule="nonzero" fill-opacity="1"></path><path clip-path="url(#clip080)" d="M1576.73 1454.1 Q1573.12 1454.1 1571.29 1457.66 Q1569.48 1461.2 1569.48 1468.33 Q1569.48 1475.44 1571.29 1479.01 Q1573.12 1482.55 1576.73 1482.55 Q1580.36 1482.55 1582.17 1479.01 Q1584 1475.44 1584 1468.33 Q1584 1461.2 1582.17 1457.66 Q1580.36 1454.1 1576.73 1454.1 M1576.73 1450.39 Q1582.54 1450.39 1585.59 1455 Q1588.67 1459.58 1588.67 1468.33 Q1588.67 1477.06 1585.59 1481.67 Q1582.54 1486.25 1576.73 1486.25 Q1570.92 1486.25 1567.84 1481.67 Q1564.78 1477.06 1564.78 1468.33 Q1564.78 1459.58 1567.84 1455 Q1570.92 1450.39 1576.73 1450.39 Z" fill="#000000" fill-rule="nonzero" fill-opacity="1"></path><path clip-path="url(#clip080)" d="M1894.81 1455.09 L1883.01 1473.54 L1894.81 1473.54 L1894.81 1455.09 M1893.58 1451.02 L1899.46 1451.02 L1899.46 1473.54 L1904.39 1473.54 L1904.39 1477.43 L1899.46 1477.43 L1899.46 1485.58 L1894.81 1485.58 L1894.81 1477.43 L1879.21 1477.43 L1879.21 1472.92 L1893.58 1451.02 Z" fill="#000000" fill-rule="nonzero" fill-opacity="1"></path><path clip-path="url(#clip080)" d="M1922.13 1454.1 Q1918.52 1454.1 1916.69 1457.66 Q1914.88 1461.2 1914.88 1468.33 Q1914.88 1475.44 1916.69 1479.01 Q1918.52 1482.55 1922.13 1482.55 Q1925.76 1482.55 1927.57 1479.01 Q1929.39 1475.44 1929.39 1468.33 Q1929.39 1461.2 1927.57 1457.66 Q1925.76 1454.1 1922.13 1454.1 M1922.13 1450.39 Q1927.94 1450.39 1930.99 1455 Q1934.07 1459.58 1934.07 1468.33 Q1934.07 1477.06 1930.99 1481.67 Q1927.94 1486.25 1922.13 1486.25 Q1916.32 1486.25 1913.24 1481.67 Q1910.18 1477.06 1910.18 1468.33 Q1910.18 1459.58 1913.24 1455 Q1916.32 1450.39 1922.13 1450.39 Z" fill="#000000" fill-rule="nonzero" fill-opacity="1"></path><path clip-path="url(#clip080)" d="M1952.29 1454.1 Q1948.68 1454.1 1946.85 1457.66 Q1945.04 1461.2 1945.04 1468.33 Q1945.04 1475.44 1946.85 1479.01 Q1948.68 1482.55 1952.29 1482.55 Q1955.92 1482.55 1957.73 1479.01 Q1959.56 1475.44 1959.56 1468.33 Q1959.56 1461.2 1957.73 1457.66 Q1955.92 1454.1 1952.29 1454.1 M1952.29 1450.39 Q1958.1 1450.39 1961.15 1455 Q1964.23 1459.58 1964.23 1468.33 Q1964.23 1477.06 1961.15 1481.67 Q1958.1 1486.25 1952.29 1486.25 Q1946.48 1486.25 1943.4 1481.67 Q1940.34 1477.06 1940.34 1468.33 Q1940.34 1459.58 1943.4 1455 Q1946.48 1450.39 1952.29 1450.39 Z" fill="#000000" fill-rule="nonzero" fill-opacity="1"></path><path clip-path="url(#clip080)" d="M2256.25 1451.02 L2274.61 1451.02 L2274.61 1454.96 L2260.53 1454.96 L2260.53 1463.43 Q2261.55 1463.08 2262.57 1462.92 Q2263.59 1462.73 2264.61 1462.73 Q2270.39 1462.73 2273.77 1465.9 Q2277.15 1469.08 2277.15 1474.49 Q2277.15 1480.07 2273.68 1483.17 Q2270.21 1486.25 2263.89 1486.25 Q2261.71 1486.25 2259.44 1485.88 Q2257.2 1485.51 2254.79 1484.77 L2254.79 1480.07 Q2256.88 1481.2 2259.1 1481.76 Q2261.32 1482.32 2263.8 1482.32 Q2267.8 1482.32 2270.14 1480.21 Q2272.48 1478.1 2272.48 1474.49 Q2272.48 1470.88 2270.14 1468.77 Q2267.8 1466.67 2263.8 1466.67 Q2261.92 1466.67 2260.05 1467.08 Q2258.19 1467.5 2256.25 1468.38 L2256.25 1451.02 Z" fill="#000000" fill-rule="nonzero" fill-opacity="1"></path><path clip-path="url(#clip080)" d="M2296.37 1454.1 Q2292.75 1454.1 2290.93 1457.66 Q2289.12 1461.2 2289.12 1468.33 Q2289.12 1475.44 2290.93 1479.01 Q2292.75 1482.55 2296.37 1482.55 Q2300 1482.55 2301.81 1479.01 Q2303.63 1475.44 2303.63 1468.33 Q2303.63 1461.2 2301.81 1457.66 Q2300 1454.1 2296.37 1454.1 M2296.37 1450.39 Q2302.18 1450.39 2305.23 1455 Q2308.31 1459.58 2308.31 1468.33 Q2308.31 1477.06 2305.23 1481.67 Q2302.18 1486.25 2296.37 1486.25 Q2290.56 1486.25 2287.48 1481.67 Q2284.42 1477.06 2284.42 1468.33 Q2284.42 1459.58 2287.48 1455 Q2290.56 1450.39 2296.37 1450.39 Z" fill="#000000" fill-rule="nonzero" fill-opacity="1"></path><path clip-path="url(#clip080)" d="M2326.53 1454.1 Q2322.92 1454.1 2321.09 1457.66 Q2319.28 1461.2 2319.28 1468.33 Q2319.28 1475.44 2321.09 1479.01 Q2322.92 1482.55 2326.53 1482.55 Q2330.16 1482.55 2331.97 1479.01 Q2333.8 1475.44 2333.8 1468.33 Q2333.8 1461.2 2331.97 1457.66 Q2330.16 1454.1 2326.53 1454.1 M2326.53 1450.39 Q2332.34 1450.39 2335.39 1455 Q2338.47 1459.58 2338.47 1468.33 Q2338.47 1477.06 2335.39 1481.67 Q2332.34 1486.25 2326.53 1486.25 Q2320.72 1486.25 2317.64 1481.67 Q2314.58 1477.06 2314.58 1468.33 Q2314.58 1459.58 2317.64 1455 Q2320.72 1450.39 2326.53 1450.39 Z" fill="#000000" fill-rule="nonzero" fill-opacity="1"></path><path clip-path="url(#clip080)" d="M1228.95 1520.52 L1235.38 1520.52 L1235.38 1568.04 L1228.95 1568.04 L1228.95 1520.52 Z" fill="#000000" fill-rule="nonzero" fill-opacity="1"></path><path clip-path="url(#clip080)" d="M1253.71 1522.27 L1253.71 1532.4 L1265.78 1532.4 L1265.78 1536.95 L1253.71 1536.95 L1253.71 1556.3 Q1253.71 1560.66 1254.89 1561.9 Q1256.1 1563.14 1259.76 1563.14 L1265.78 1563.14 L1265.78 1568.04 L1259.76 1568.04 Q1252.98 1568.04 1250.4 1565.53 Q1247.82 1562.98 1247.82 1556.3 L1247.82 1536.95 L1243.53 1536.95 L1243.53 1532.4 L1247.82 1532.4 L1247.82 1522.27 L1253.71 1522.27 Z" fill="#000000" fill-rule="nonzero" fill-opacity="1"></path><path clip-path="url(#clip080)" d="M1303.97 1548.76 L1303.97 1551.62 L1277.04 1551.62 Q1277.43 1557.67 1280.67 1560.85 Q1283.95 1564 1289.77 1564 Q1293.15 1564 1296.3 1563.17 Q1299.48 1562.35 1302.6 1560.69 L1302.6 1566.23 Q1299.45 1567.57 1296.14 1568.27 Q1292.83 1568.97 1289.42 1568.97 Q1280.89 1568.97 1275.9 1564 Q1270.93 1559.04 1270.93 1550.57 Q1270.93 1541.82 1275.64 1536.69 Q1280.39 1531.54 1288.41 1531.54 Q1295.6 1531.54 1299.77 1536.18 Q1303.97 1540.8 1303.97 1548.76 M1298.11 1547.04 Q1298.05 1542.23 1295.41 1539.37 Q1292.8 1536.5 1288.47 1536.5 Q1283.57 1536.5 1280.61 1539.27 Q1277.68 1542.04 1277.23 1547.07 L1298.11 1547.04 Z" fill="#000000" fill-rule="nonzero" fill-opacity="1"></path><path clip-path="url(#clip080)" d="M1334.24 1537.87 Q1333.25 1537.3 1332.07 1537.04 Q1330.93 1536.76 1329.53 1536.76 Q1324.56 1536.76 1321.89 1540 Q1319.25 1543.22 1319.25 1549.27 L1319.25 1568.04 L1313.36 1568.04 L1313.36 1532.4 L1319.25 1532.4 L1319.25 1537.93 Q1321.09 1534.69 1324.05 1533.13 Q1327.01 1531.54 1331.25 1531.54 Q1331.85 1531.54 1332.58 1531.63 Q1333.32 1531.7 1334.21 1531.85 L1334.24 1537.87 Z" fill="#000000" fill-rule="nonzero" fill-opacity="1"></path><path clip-path="url(#clip080)" d="M1356.58 1550.12 Q1349.48 1550.12 1346.75 1551.75 Q1344.01 1553.37 1344.01 1557.29 Q1344.01 1560.4 1346.05 1562.25 Q1348.12 1564.07 1351.65 1564.07 Q1356.52 1564.07 1359.45 1560.63 Q1362.41 1557.16 1362.41 1551.43 L1362.41 1550.12 L1356.58 1550.12 M1368.26 1547.71 L1368.26 1568.04 L1362.41 1568.04 L1362.41 1562.63 Q1360.4 1565.88 1357.41 1567.44 Q1354.42 1568.97 1350.09 1568.97 Q1344.62 1568.97 1341.37 1565.91 Q1338.15 1562.82 1338.15 1557.67 Q1338.15 1551.65 1342.16 1548.6 Q1346.21 1545.54 1354.2 1545.54 L1362.41 1545.54 L1362.41 1544.97 Q1362.41 1540.93 1359.73 1538.73 Q1357.09 1536.5 1352.29 1536.5 Q1349.23 1536.5 1346.33 1537.23 Q1343.44 1537.97 1340.76 1539.43 L1340.76 1534.02 Q1343.98 1532.78 1347 1532.17 Q1350.03 1531.54 1352.89 1531.54 Q1360.62 1531.54 1364.44 1535.55 Q1368.26 1539.56 1368.26 1547.71 Z" fill="#000000" fill-rule="nonzero" fill-opacity="1"></path><path clip-path="url(#clip080)" d="M1386.12 1522.27 L1386.12 1532.4 L1398.18 1532.4 L1398.18 1536.95 L1386.12 1536.95 L1386.12 1556.3 Q1386.12 1560.66 1387.3 1561.9 Q1388.51 1563.14 1392.17 1563.14 L1398.18 1563.14 L1398.18 1568.04 L1392.17 1568.04 Q1385.39 1568.04 1382.81 1565.53 Q1380.23 1562.98 1380.23 1556.3 L1380.23 1536.95 L1375.93 1536.95 L1375.93 1532.4 L1380.23 1532.4 L1380.23 1522.27 L1386.12 1522.27 Z" fill="#000000" fill-rule="nonzero" fill-opacity="1"></path><path clip-path="url(#clip080)" d="M1405.89 1532.4 L1411.74 1532.4 L1411.74 1568.04 L1405.89 1568.04 L1405.89 1532.4 M1405.89 1518.52 L1411.74 1518.52 L1411.74 1525.93 L1405.89 1525.93 L1405.89 1518.52 Z" fill="#000000" fill-rule="nonzero" fill-opacity="1"></path><path clip-path="url(#clip080)" d="M1437.81 1536.5 Q1433.1 1536.5 1430.36 1540.19 Q1427.62 1543.85 1427.62 1550.25 Q1427.62 1556.65 1430.33 1560.34 Q1433.07 1564 1437.81 1564 Q1442.49 1564 1445.23 1560.31 Q1447.96 1556.62 1447.96 1550.25 Q1447.96 1543.92 1445.23 1540.23 Q1442.49 1536.5 1437.81 1536.5 M1437.81 1531.54 Q1445.45 1531.54 1449.81 1536.5 Q1454.17 1541.47 1454.17 1550.25 Q1454.17 1559 1449.81 1564 Q1445.45 1568.97 1437.81 1568.97 Q1430.14 1568.97 1425.78 1564 Q1421.45 1559 1421.45 1550.25 Q1421.45 1541.47 1425.78 1536.5 Q1430.14 1531.54 1437.81 1531.54 Z" fill="#000000" fill-rule="nonzero" fill-opacity="1"></path><path clip-path="url(#clip080)" d="M1493.51 1546.53 L1493.51 1568.04 L1487.65 1568.04 L1487.65 1546.72 Q1487.65 1541.66 1485.68 1539.14 Q1483.71 1536.63 1479.76 1536.63 Q1475.02 1536.63 1472.28 1539.65 Q1469.54 1542.68 1469.54 1547.9 L1469.54 1568.04 L1463.65 1568.04 L1463.65 1532.4 L1469.54 1532.4 L1469.54 1537.93 Q1471.64 1534.72 1474.48 1533.13 Q1477.34 1531.54 1481.06 1531.54 Q1487.21 1531.54 1490.36 1535.36 Q1493.51 1539.14 1493.51 1546.53 Z" fill="#000000" fill-rule="nonzero" fill-opacity="1"></path><polyline clip-path="url(#clip080)" style="stroke:#000000; stroke-linecap:round; stroke-linejoin:round; stroke-width:4; stroke-opacity:1; fill:none" points="369.703,1423.18 369.703,123.472 "></polyline>
<polyline clip-path="url(#clip080)" style="stroke:#000000; stroke-linecap:round; stroke-linejoin:round; stroke-width:4; stroke-opacity:1; fill:none" points="369.703,1216.6 388.601,1216.6 "></polyline>
<polyline clip-path="url(#clip080)" style="stroke:#000000; stroke-linecap:round; stroke-linejoin:round; stroke-width:4; stroke-opacity:1; fill:none" points="369.703,962.666 388.601,962.666 "></polyline>
<polyline clip-path="url(#clip080)" style="stroke:#000000; stroke-linecap:round; stroke-linejoin:round; stroke-width:4; stroke-opacity:1; fill:none" points="369.703,708.731 388.601,708.731 "></polyline>
<polyline clip-path="url(#clip080)" style="stroke:#000000; stroke-linecap:round; stroke-linejoin:round; stroke-width:4; stroke-opacity:1; fill:none" points="369.703,454.797 388.601,454.797 "></polyline>
<polyline clip-path="url(#clip080)" style="stroke:#000000; stroke-linecap:round; stroke-linejoin:round; stroke-width:4; stroke-opacity:1; fill:none" points="369.703,200.862 388.601,200.862 "></polyline>
<path clip-path="url(#clip080)" d="M116.668 1236.39 L124.306 1236.39 L124.306 1210.03 L115.996 1211.69 L115.996 1207.43 L124.26 1205.77 L128.936 1205.77 L128.936 1236.39 L136.575 1236.39 L136.575 1240.33 L116.668 1240.33 L116.668 1236.39 Z" fill="#000000" fill-rule="nonzero" fill-opacity="1"></path><path clip-path="url(#clip080)" d="M146.019 1234.45 L150.903 1234.45 L150.903 1240.33 L146.019 1240.33 L146.019 1234.45 Z" fill="#000000" fill-rule="nonzero" fill-opacity="1"></path><path clip-path="url(#clip080)" d="M171.089 1208.85 Q167.477 1208.85 165.649 1212.41 Q163.843 1215.95 163.843 1223.08 Q163.843 1230.19 165.649 1233.75 Q167.477 1237.3 171.089 1237.3 Q174.723 1237.3 176.528 1233.75 Q178.357 1230.19 178.357 1223.08 Q178.357 1215.95 176.528 1212.41 Q174.723 1208.85 171.089 1208.85 M171.089 1205.14 Q176.899 1205.14 179.954 1209.75 Q183.033 1214.33 183.033 1223.08 Q183.033 1231.81 179.954 1236.42 Q176.899 1241 171.089 1241 Q165.278 1241 162.2 1236.42 Q159.144 1231.81 159.144 1223.08 Q159.144 1214.33 162.2 1209.75 Q165.278 1205.14 171.089 1205.14 Z" fill="#000000" fill-rule="nonzero" fill-opacity="1"></path><path clip-path="url(#clip080)" d="M201.25 1208.85 Q197.639 1208.85 195.811 1212.41 Q194.005 1215.95 194.005 1223.08 Q194.005 1230.19 195.811 1233.75 Q197.639 1237.3 201.25 1237.3 Q204.885 1237.3 206.69 1233.75 Q208.519 1230.19 208.519 1223.08 Q208.519 1215.95 206.69 1212.41 Q204.885 1208.85 201.25 1208.85 M201.25 1205.14 Q207.061 1205.14 210.116 1209.75 Q213.195 1214.33 213.195 1223.08 Q213.195 1231.81 210.116 1236.42 Q207.061 1241 201.25 1241 Q195.44 1241 192.362 1236.42 Q189.306 1231.81 189.306 1223.08 Q189.306 1214.33 192.362 1209.75 Q195.44 1205.14 201.25 1205.14 Z" fill="#000000" fill-rule="nonzero" fill-opacity="1"></path><path clip-path="url(#clip080)" d="M249.584 1214.86 L239.005 1225.49 L249.584 1236.07 L246.829 1238.87 L236.204 1228.24 L225.579 1238.87 L222.848 1236.07 L233.403 1225.49 L222.848 1214.86 L225.579 1212.06 L236.204 1222.69 L246.829 1212.06 L249.584 1214.86 Z" fill="#000000" fill-rule="nonzero" fill-opacity="1"></path><path clip-path="url(#clip080)" d="M261.945 1236.39 L269.583 1236.39 L269.583 1210.03 L261.273 1211.69 L261.273 1207.43 L269.537 1205.77 L274.213 1205.77 L274.213 1236.39 L281.852 1236.39 L281.852 1240.33 L261.945 1240.33 L261.945 1236.39 Z" fill="#000000" fill-rule="nonzero" fill-opacity="1"></path><path clip-path="url(#clip080)" d="M301.296 1208.85 Q297.685 1208.85 295.856 1212.41 Q294.051 1215.95 294.051 1223.08 Q294.051 1230.19 295.856 1233.75 Q297.685 1237.3 301.296 1237.3 Q304.93 1237.3 306.736 1233.75 Q308.565 1230.19 308.565 1223.08 Q308.565 1215.95 306.736 1212.41 Q304.93 1208.85 301.296 1208.85 M301.296 1205.14 Q307.106 1205.14 310.162 1209.75 Q313.241 1214.33 313.241 1223.08 Q313.241 1231.81 310.162 1236.42 Q307.106 1241 301.296 1241 Q295.486 1241 292.407 1236.42 Q289.352 1231.81 289.352 1223.08 Q289.352 1214.33 292.407 1209.75 Q295.486 1205.14 301.296 1205.14 Z" fill="#000000" fill-rule="nonzero" fill-opacity="1"></path><path clip-path="url(#clip080)" d="M325.917 1188.15 L316.325 1203.14 L325.917 1203.14 L325.917 1188.15 M324.92 1184.84 L329.697 1184.84 L329.697 1203.14 L333.703 1203.14 L333.703 1206.3 L329.697 1206.3 L329.697 1212.92 L325.917 1212.92 L325.917 1206.3 L313.241 1206.3 L313.241 1202.63 L324.92 1184.84 Z" fill="#000000" fill-rule="nonzero" fill-opacity="1"></path><path clip-path="url(#clip080)" d="M116.668 982.458 L124.306 982.458 L124.306 956.092 L115.996 957.759 L115.996 953.5 L124.26 951.833 L128.936 951.833 L128.936 982.458 L136.575 982.458 L136.575 986.393 L116.668 986.393 L116.668 982.458 Z" fill="#000000" fill-rule="nonzero" fill-opacity="1"></path><path clip-path="url(#clip080)" d="M146.019 980.514 L150.903 980.514 L150.903 986.393 L146.019 986.393 L146.019 980.514 Z" fill="#000000" fill-rule="nonzero" fill-opacity="1"></path><path clip-path="url(#clip080)" d="M161.135 951.833 L179.491 951.833 L179.491 955.768 L165.417 955.768 L165.417 964.24 Q166.436 963.893 167.454 963.731 Q168.473 963.546 169.491 963.546 Q175.278 963.546 178.658 966.717 Q182.038 969.889 182.038 975.305 Q182.038 980.884 178.565 983.986 Q175.093 987.064 168.774 987.064 Q166.598 987.064 164.329 986.694 Q162.084 986.324 159.677 985.583 L159.677 980.884 Q161.76 982.018 163.982 982.574 Q166.204 983.129 168.681 983.129 Q172.686 983.129 175.024 981.023 Q177.362 978.916 177.362 975.305 Q177.362 971.694 175.024 969.588 Q172.686 967.481 168.681 967.481 Q166.806 967.481 164.931 967.898 Q163.079 968.315 161.135 969.194 L161.135 951.833 Z" fill="#000000" fill-rule="nonzero" fill-opacity="1"></path><path clip-path="url(#clip080)" d="M201.25 954.912 Q197.639 954.912 195.811 958.477 Q194.005 962.018 194.005 969.148 Q194.005 976.254 195.811 979.819 Q197.639 983.361 201.25 983.361 Q204.885 983.361 206.69 979.819 Q208.519 976.254 208.519 969.148 Q208.519 962.018 206.69 958.477 Q204.885 954.912 201.25 954.912 M201.25 951.208 Q207.061 951.208 210.116 955.815 Q213.195 960.398 213.195 969.148 Q213.195 977.875 210.116 982.481 Q207.061 987.064 201.25 987.064 Q195.44 987.064 192.362 982.481 Q189.306 977.875 189.306 969.148 Q189.306 960.398 192.362 955.815 Q195.44 951.208 201.25 951.208 Z" fill="#000000" fill-rule="nonzero" fill-opacity="1"></path><path clip-path="url(#clip080)" d="M249.584 960.93 L239.005 971.555 L249.584 982.134 L246.829 984.935 L236.204 974.31 L225.579 984.935 L222.848 982.134 L233.403 971.555 L222.848 960.93 L225.579 958.129 L236.204 968.754 L246.829 958.129 L249.584 960.93 Z" fill="#000000" fill-rule="nonzero" fill-opacity="1"></path><path clip-path="url(#clip080)" d="M261.945 982.458 L269.583 982.458 L269.583 956.092 L261.273 957.759 L261.273 953.5 L269.537 951.833 L274.213 951.833 L274.213 982.458 L281.852 982.458 L281.852 986.393 L261.945 986.393 L261.945 982.458 Z" fill="#000000" fill-rule="nonzero" fill-opacity="1"></path><path clip-path="url(#clip080)" d="M301.296 954.912 Q297.685 954.912 295.856 958.477 Q294.051 962.018 294.051 969.148 Q294.051 976.254 295.856 979.819 Q297.685 983.361 301.296 983.361 Q304.93 983.361 306.736 979.819 Q308.565 976.254 308.565 969.148 Q308.565 962.018 306.736 958.477 Q304.93 954.912 301.296 954.912 M301.296 951.208 Q307.106 951.208 310.162 955.815 Q313.241 960.398 313.241 969.148 Q313.241 977.875 310.162 982.481 Q307.106 987.064 301.296 987.064 Q295.486 987.064 292.407 982.481 Q289.352 977.875 289.352 969.148 Q289.352 960.398 292.407 955.815 Q295.486 951.208 301.296 951.208 Z" fill="#000000" fill-rule="nonzero" fill-opacity="1"></path><path clip-path="url(#clip080)" d="M325.917 934.213 L316.325 949.203 L325.917 949.203 L325.917 934.213 M324.92 930.903 L329.697 930.903 L329.697 949.203 L333.703 949.203 L333.703 952.362 L329.697 952.362 L329.697 958.983 L325.917 958.983 L325.917 952.362 L313.241 952.362 L313.241 948.695 L324.92 930.903 Z" fill="#000000" fill-rule="nonzero" fill-opacity="1"></path><path clip-path="url(#clip080)" d="M119.885 728.524 L136.204 728.524 L136.204 732.459 L114.26 732.459 L114.26 728.524 Q116.922 725.769 121.505 721.139 Q126.112 716.487 127.292 715.144 Q129.538 712.621 130.417 710.885 Q131.32 709.126 131.32 707.436 Q131.32 704.681 129.376 702.945 Q127.455 701.209 124.353 701.209 Q122.154 701.209 119.7 701.973 Q117.269 702.737 114.492 704.288 L114.492 699.565 Q117.316 698.431 119.769 697.852 Q122.223 697.274 124.26 697.274 Q129.63 697.274 132.825 699.959 Q136.019 702.644 136.019 707.135 Q136.019 709.264 135.209 711.186 Q134.422 713.084 132.316 715.676 Q131.737 716.348 128.635 719.565 Q125.533 722.76 119.885 728.524 Z" fill="#000000" fill-rule="nonzero" fill-opacity="1"></path><path clip-path="url(#clip080)" d="M146.019 726.579 L150.903 726.579 L150.903 732.459 L146.019 732.459 L146.019 726.579 Z" fill="#000000" fill-rule="nonzero" fill-opacity="1"></path><path clip-path="url(#clip080)" d="M171.089 700.977 Q167.477 700.977 165.649 704.542 Q163.843 708.084 163.843 715.213 Q163.843 722.32 165.649 725.885 Q167.477 729.426 171.089 729.426 Q174.723 729.426 176.528 725.885 Q178.357 722.32 178.357 715.213 Q178.357 708.084 176.528 704.542 Q174.723 700.977 171.089 700.977 M171.089 697.274 Q176.899 697.274 179.954 701.88 Q183.033 706.464 183.033 715.213 Q183.033 723.94 179.954 728.547 Q176.899 733.13 171.089 733.13 Q165.278 733.13 162.2 728.547 Q159.144 723.94 159.144 715.213 Q159.144 706.464 162.2 701.88 Q165.278 697.274 171.089 697.274 Z" fill="#000000" fill-rule="nonzero" fill-opacity="1"></path><path clip-path="url(#clip080)" d="M201.25 700.977 Q197.639 700.977 195.811 704.542 Q194.005 708.084 194.005 715.213 Q194.005 722.32 195.811 725.885 Q197.639 729.426 201.25 729.426 Q204.885 729.426 206.69 725.885 Q208.519 722.32 208.519 715.213 Q208.519 708.084 206.69 704.542 Q204.885 700.977 201.25 700.977 M201.25 697.274 Q207.061 697.274 210.116 701.88 Q213.195 706.464 213.195 715.213 Q213.195 723.94 210.116 728.547 Q207.061 733.13 201.25 733.13 Q195.44 733.13 192.362 728.547 Q189.306 723.94 189.306 715.213 Q189.306 706.464 192.362 701.88 Q195.44 697.274 201.25 697.274 Z" fill="#000000" fill-rule="nonzero" fill-opacity="1"></path><path clip-path="url(#clip080)" d="M249.584 706.996 L239.005 717.621 L249.584 728.2 L246.829 731 L236.204 720.375 L225.579 731 L222.848 728.2 L233.403 717.621 L222.848 706.996 L225.579 704.195 L236.204 714.82 L246.829 704.195 L249.584 706.996 Z" fill="#000000" fill-rule="nonzero" fill-opacity="1"></path><path clip-path="url(#clip080)" d="M261.945 728.524 L269.583 728.524 L269.583 702.158 L261.273 703.825 L261.273 699.565 L269.537 697.899 L274.213 697.899 L274.213 728.524 L281.852 728.524 L281.852 732.459 L261.945 732.459 L261.945 728.524 Z" fill="#000000" fill-rule="nonzero" fill-opacity="1"></path><path clip-path="url(#clip080)" d="M301.296 700.977 Q297.685 700.977 295.856 704.542 Q294.051 708.084 294.051 715.213 Q294.051 722.32 295.856 725.885 Q297.685 729.426 301.296 729.426 Q304.93 729.426 306.736 725.885 Q308.565 722.32 308.565 715.213 Q308.565 708.084 306.736 704.542 Q304.93 700.977 301.296 700.977 M301.296 697.274 Q307.106 697.274 310.162 701.88 Q313.241 706.464 313.241 715.213 Q313.241 723.94 310.162 728.547 Q307.106 733.13 301.296 733.13 Q295.486 733.13 292.407 728.547 Q289.352 723.94 289.352 715.213 Q289.352 706.464 292.407 701.88 Q295.486 697.274 301.296 697.274 Z" fill="#000000" fill-rule="nonzero" fill-opacity="1"></path><path clip-path="url(#clip080)" d="M325.917 680.279 L316.325 695.268 L325.917 695.268 L325.917 680.279 M324.92 676.968 L329.697 676.968 L329.697 695.268 L333.703 695.268 L333.703 698.428 L329.697 698.428 L329.697 705.048 L325.917 705.048 L325.917 698.428 L313.241 698.428 L313.241 694.76 L324.92 676.968 Z" fill="#000000" fill-rule="nonzero" fill-opacity="1"></path><path clip-path="url(#clip080)" d="M119.885 474.589 L136.204 474.589 L136.204 478.524 L114.26 478.524 L114.26 474.589 Q116.922 471.835 121.505 467.205 Q126.112 462.552 127.292 461.21 Q129.538 458.686 130.417 456.95 Q131.32 455.191 131.32 453.501 Q131.32 450.747 129.376 449.011 Q127.455 447.275 124.353 447.275 Q122.154 447.275 119.7 448.038 Q117.269 448.802 114.492 450.353 L114.492 445.631 Q117.316 444.497 119.769 443.918 Q122.223 443.339 124.26 443.339 Q129.63 443.339 132.825 446.025 Q136.019 448.71 136.019 453.2 Q136.019 455.33 135.209 457.251 Q134.422 459.149 132.316 461.742 Q131.737 462.413 128.635 465.631 Q125.533 468.825 119.885 474.589 Z" fill="#000000" fill-rule="nonzero" fill-opacity="1"></path><path clip-path="url(#clip080)" d="M146.019 472.645 L150.903 472.645 L150.903 478.524 L146.019 478.524 L146.019 472.645 Z" fill="#000000" fill-rule="nonzero" fill-opacity="1"></path><path clip-path="url(#clip080)" d="M161.135 443.964 L179.491 443.964 L179.491 447.9 L165.417 447.9 L165.417 456.372 Q166.436 456.024 167.454 455.862 Q168.473 455.677 169.491 455.677 Q175.278 455.677 178.658 458.849 Q182.038 462.02 182.038 467.436 Q182.038 473.015 178.565 476.117 Q175.093 479.196 168.774 479.196 Q166.598 479.196 164.329 478.825 Q162.084 478.455 159.677 477.714 L159.677 473.015 Q161.76 474.149 163.982 474.705 Q166.204 475.26 168.681 475.26 Q172.686 475.26 175.024 473.154 Q177.362 471.048 177.362 467.436 Q177.362 463.825 175.024 461.719 Q172.686 459.612 168.681 459.612 Q166.806 459.612 164.931 460.029 Q163.079 460.446 161.135 461.325 L161.135 443.964 Z" fill="#000000" fill-rule="nonzero" fill-opacity="1"></path><path clip-path="url(#clip080)" d="M201.25 447.043 Q197.639 447.043 195.811 450.608 Q194.005 454.149 194.005 461.279 Q194.005 468.386 195.811 471.95 Q197.639 475.492 201.25 475.492 Q204.885 475.492 206.69 471.95 Q208.519 468.386 208.519 461.279 Q208.519 454.149 206.69 450.608 Q204.885 447.043 201.25 447.043 M201.25 443.339 Q207.061 443.339 210.116 447.946 Q213.195 452.529 213.195 461.279 Q213.195 470.006 210.116 474.612 Q207.061 479.196 201.25 479.196 Q195.44 479.196 192.362 474.612 Q189.306 470.006 189.306 461.279 Q189.306 452.529 192.362 447.946 Q195.44 443.339 201.25 443.339 Z" fill="#000000" fill-rule="nonzero" fill-opacity="1"></path><path clip-path="url(#clip080)" d="M249.584 453.062 L239.005 463.686 L249.584 474.265 L246.829 477.066 L236.204 466.441 L225.579 477.066 L222.848 474.265 L233.403 463.686 L222.848 453.062 L225.579 450.261 L236.204 460.886 L246.829 450.261 L249.584 453.062 Z" fill="#000000" fill-rule="nonzero" fill-opacity="1"></path><path clip-path="url(#clip080)" d="M261.945 474.589 L269.583 474.589 L269.583 448.224 L261.273 449.89 L261.273 445.631 L269.537 443.964 L274.213 443.964 L274.213 474.589 L281.852 474.589 L281.852 478.524 L261.945 478.524 L261.945 474.589 Z" fill="#000000" fill-rule="nonzero" fill-opacity="1"></path><path clip-path="url(#clip080)" d="M301.296 447.043 Q297.685 447.043 295.856 450.608 Q294.051 454.149 294.051 461.279 Q294.051 468.386 295.856 471.95 Q297.685 475.492 301.296 475.492 Q304.93 475.492 306.736 471.95 Q308.565 468.386 308.565 461.279 Q308.565 454.149 306.736 450.608 Q304.93 447.043 301.296 447.043 M301.296 443.339 Q307.106 443.339 310.162 447.946 Q313.241 452.529 313.241 461.279 Q313.241 470.006 310.162 474.612 Q307.106 479.196 301.296 479.196 Q295.486 479.196 292.407 474.612 Q289.352 470.006 289.352 461.279 Q289.352 452.529 292.407 447.946 Q295.486 443.339 301.296 443.339 Z" fill="#000000" fill-rule="nonzero" fill-opacity="1"></path><path clip-path="url(#clip080)" d="M325.917 426.344 L316.325 441.334 L325.917 441.334 L325.917 426.344 M324.92 423.034 L329.697 423.034 L329.697 441.334 L333.703 441.334 L333.703 444.494 L329.697 444.494 L329.697 451.114 L325.917 451.114 L325.917 444.494 L313.241 444.494 L313.241 440.826 L324.92 423.034 Z" fill="#000000" fill-rule="nonzero" fill-opacity="1"></path><path clip-path="url(#clip080)" d="M130.024 205.956 Q133.38 206.673 135.255 208.942 Q137.154 211.21 137.154 214.544 Q137.154 219.659 133.635 222.46 Q130.117 225.261 123.635 225.261 Q121.459 225.261 119.144 224.821 Q116.853 224.405 114.399 223.548 L114.399 219.034 Q116.343 220.169 118.658 220.747 Q120.973 221.326 123.496 221.326 Q127.894 221.326 130.186 219.59 Q132.501 217.854 132.501 214.544 Q132.501 211.488 130.348 209.775 Q128.218 208.039 124.399 208.039 L120.371 208.039 L120.371 204.197 L124.584 204.197 Q128.033 204.197 129.862 202.831 Q131.691 201.442 131.691 198.849 Q131.691 196.187 129.792 194.775 Q127.917 193.34 124.399 193.34 Q122.478 193.34 120.279 193.757 Q118.08 194.173 115.441 195.053 L115.441 190.886 Q118.103 190.146 120.418 189.775 Q122.755 189.405 124.816 189.405 Q130.14 189.405 133.242 191.835 Q136.343 194.243 136.343 198.363 Q136.343 201.234 134.7 203.224 Q133.056 205.192 130.024 205.956 Z" fill="#000000" fill-rule="nonzero" fill-opacity="1"></path><path clip-path="url(#clip080)" d="M146.019 218.71 L150.903 218.71 L150.903 224.59 L146.019 224.59 L146.019 218.71 Z" fill="#000000" fill-rule="nonzero" fill-opacity="1"></path><path clip-path="url(#clip080)" d="M171.089 193.109 Q167.477 193.109 165.649 196.673 Q163.843 200.215 163.843 207.345 Q163.843 214.451 165.649 218.016 Q167.477 221.558 171.089 221.558 Q174.723 221.558 176.528 218.016 Q178.357 214.451 178.357 207.345 Q178.357 200.215 176.528 196.673 Q174.723 193.109 171.089 193.109 M171.089 189.405 Q176.899 189.405 179.954 194.011 Q183.033 198.595 183.033 207.345 Q183.033 216.071 179.954 220.678 Q176.899 225.261 171.089 225.261 Q165.278 225.261 162.2 220.678 Q159.144 216.071 159.144 207.345 Q159.144 198.595 162.2 194.011 Q165.278 189.405 171.089 189.405 Z" fill="#000000" fill-rule="nonzero" fill-opacity="1"></path><path clip-path="url(#clip080)" d="M201.25 193.109 Q197.639 193.109 195.811 196.673 Q194.005 200.215 194.005 207.345 Q194.005 214.451 195.811 218.016 Q197.639 221.558 201.25 221.558 Q204.885 221.558 206.69 218.016 Q208.519 214.451 208.519 207.345 Q208.519 200.215 206.69 196.673 Q204.885 193.109 201.25 193.109 M201.25 189.405 Q207.061 189.405 210.116 194.011 Q213.195 198.595 213.195 207.345 Q213.195 216.071 210.116 220.678 Q207.061 225.261 201.25 225.261 Q195.44 225.261 192.362 220.678 Q189.306 216.071 189.306 207.345 Q189.306 198.595 192.362 194.011 Q195.44 189.405 201.25 189.405 Z" fill="#000000" fill-rule="nonzero" fill-opacity="1"></path><path clip-path="url(#clip080)" d="M249.584 199.127 L239.005 209.752 L249.584 220.331 L246.829 223.132 L236.204 212.507 L225.579 223.132 L222.848 220.331 L233.403 209.752 L222.848 199.127 L225.579 196.326 L236.204 206.951 L246.829 196.326 L249.584 199.127 Z" fill="#000000" fill-rule="nonzero" fill-opacity="1"></path><path clip-path="url(#clip080)" d="M261.945 220.655 L269.583 220.655 L269.583 194.289 L261.273 195.956 L261.273 191.697 L269.537 190.03 L274.213 190.03 L274.213 220.655 L281.852 220.655 L281.852 224.59 L261.945 224.59 L261.945 220.655 Z" fill="#000000" fill-rule="nonzero" fill-opacity="1"></path><path clip-path="url(#clip080)" d="M301.296 193.109 Q297.685 193.109 295.856 196.673 Q294.051 200.215 294.051 207.345 Q294.051 214.451 295.856 218.016 Q297.685 221.558 301.296 221.558 Q304.93 221.558 306.736 218.016 Q308.565 214.451 308.565 207.345 Q308.565 200.215 306.736 196.673 Q304.93 193.109 301.296 193.109 M301.296 189.405 Q307.106 189.405 310.162 194.011 Q313.241 198.595 313.241 207.345 Q313.241 216.071 310.162 220.678 Q307.106 225.261 301.296 225.261 Q295.486 225.261 292.407 220.678 Q289.352 216.071 289.352 207.345 Q289.352 198.595 292.407 194.011 Q295.486 189.405 301.296 189.405 Z" fill="#000000" fill-rule="nonzero" fill-opacity="1"></path><path clip-path="url(#clip080)" d="M325.917 172.41 L316.325 187.4 L325.917 187.4 L325.917 172.41 M324.92 169.1 L329.697 169.1 L329.697 187.4 L333.703 187.4 L333.703 190.559 L329.697 190.559 L329.697 197.18 L325.917 197.18 L325.917 190.559 L313.241 190.559 L313.241 186.892 L324.92 169.1 Z" fill="#000000" fill-rule="nonzero" fill-opacity="1"></path><path clip-path="url(#clip080)" d="M16.4842 881.416 L16.4842 854.107 L21.895 854.107 L21.895 874.986 L35.8996 874.986 L35.8996 856.144 L41.3104 856.144 L41.3104 874.986 L64.0042 874.986 L64.0042 881.416 L16.4842 881.416 Z" fill="#000000" fill-rule="nonzero" fill-opacity="1"></path><path clip-path="url(#clip080)" d="M28.3562 848.919 L28.3562 843.062 L64.0042 843.062 L64.0042 848.919 L28.3562 848.919 M14.479 848.919 L14.479 843.062 L21.895 843.062 L21.895 848.919 L14.479 848.919 Z" fill="#000000" fill-rule="nonzero" fill-opacity="1"></path><path clip-path="url(#clip080)" d="M18.2347 825.016 L28.3562 825.016 L28.3562 812.953 L32.9077 812.953 L32.9077 825.016 L52.2594 825.016 Q56.6199 825.016 57.8613 823.838 Q59.1026 822.628 59.1026 818.968 L59.1026 812.953 L64.0042 812.953 L64.0042 818.968 Q64.0042 825.748 61.4897 828.326 Q58.9434 830.904 52.2594 830.904 L32.9077 830.904 L32.9077 835.201 L28.3562 835.201 L28.3562 830.904 L18.2347 830.904 L18.2347 825.016 Z" fill="#000000" fill-rule="nonzero" fill-opacity="1"></path><path clip-path="url(#clip080)" d="M42.4881 775.618 L64.0042 775.618 L64.0042 781.474 L42.679 781.474 Q37.6183 781.474 35.1038 783.447 Q32.5894 785.421 32.5894 789.368 Q32.5894 794.11 35.6131 796.847 Q38.6368 799.585 43.8567 799.585 L64.0042 799.585 L64.0042 805.473 L28.3562 805.473 L28.3562 799.585 L33.8944 799.585 Q30.6797 797.484 29.0883 794.651 Q27.4968 791.787 27.4968 788.063 Q27.4968 781.92 31.3163 778.769 Q35.1038 775.618 42.4881 775.618 Z" fill="#000000" fill-rule="nonzero" fill-opacity="1"></path><path clip-path="url(#clip080)" d="M44.7161 733.445 L47.5806 733.445 L47.5806 760.372 Q53.6281 759.99 56.8109 756.743 Q59.9619 753.465 59.9619 747.64 Q59.9619 744.267 59.1344 741.116 Q58.3069 737.933 56.6518 734.813 L62.1899 734.813 Q63.5267 737.964 64.227 741.275 Q64.9272 744.585 64.9272 747.99 Q64.9272 756.521 59.9619 761.518 Q54.9967 766.483 46.5303 766.483 Q37.7774 766.483 32.6531 761.772 Q27.4968 757.03 27.4968 749.009 Q27.4968 741.816 32.1438 737.646 Q36.7589 733.445 44.7161 733.445 M42.9973 739.301 Q38.1912 739.365 35.3266 742.007 Q32.4621 744.617 32.4621 748.945 Q32.4621 753.847 35.2312 756.807 Q38.0002 759.735 43.0292 760.181 L42.9973 739.301 Z" fill="#000000" fill-rule="nonzero" fill-opacity="1"></path><path clip-path="url(#clip080)" d="M29.4065 701.107 L34.9447 701.107 Q33.6716 703.59 33.035 706.263 Q32.3984 708.937 32.3984 711.801 Q32.3984 716.162 33.7352 718.358 Q35.072 720.522 37.7456 720.522 Q39.7826 720.522 40.9603 718.963 Q42.1061 717.403 43.1565 712.693 L43.6021 710.687 Q44.9389 704.449 47.3897 701.839 Q49.8086 699.197 54.1691 699.197 Q59.1344 699.197 62.0308 703.144 Q64.9272 707.059 64.9272 713.934 Q64.9272 716.799 64.3543 719.918 Q63.8132 723.005 62.6992 726.443 L56.6518 726.443 Q58.3387 723.196 59.198 720.045 Q60.0256 716.894 60.0256 713.807 Q60.0256 709.669 58.6251 707.441 Q57.1929 705.213 54.6147 705.213 Q52.2276 705.213 50.9545 706.836 Q49.6813 708.428 48.5037 713.87 L48.0262 715.907 Q46.8804 721.35 44.5251 723.769 Q42.138 726.188 38.0002 726.188 Q32.9713 726.188 30.2341 722.623 Q27.4968 719.058 27.4968 712.502 Q27.4968 709.255 27.9743 706.391 Q28.4517 703.526 29.4065 701.107 Z" fill="#000000" fill-rule="nonzero" fill-opacity="1"></path><path clip-path="url(#clip080)" d="M29.4065 667.146 L34.9447 667.146 Q33.6716 669.629 33.035 672.302 Q32.3984 674.976 32.3984 677.84 Q32.3984 682.201 33.7352 684.397 Q35.072 686.561 37.7456 686.561 Q39.7826 686.561 40.9603 685.002 Q42.1061 683.442 43.1565 678.732 L43.6021 676.726 Q44.9389 670.488 47.3897 667.878 Q49.8086 665.236 54.1691 665.236 Q59.1344 665.236 62.0308 669.183 Q64.9272 673.098 64.9272 679.973 Q64.9272 682.837 64.3543 685.957 Q63.8132 689.044 62.6992 692.482 L56.6518 692.482 Q58.3387 689.235 59.198 686.084 Q60.0256 682.933 60.0256 679.846 Q60.0256 675.708 58.6251 673.48 Q57.1929 671.252 54.6147 671.252 Q52.2276 671.252 50.9545 672.875 Q49.6813 674.467 48.5037 679.909 L48.0262 681.946 Q46.8804 687.389 44.5251 689.808 Q42.138 692.227 38.0002 692.227 Q32.9713 692.227 30.2341 688.662 Q27.4968 685.097 27.4968 678.541 Q27.4968 675.294 27.9743 672.43 Q28.4517 669.565 29.4065 667.146 Z" fill="#000000" fill-rule="nonzero" fill-opacity="1"></path><path clip-path="url(#clip080)" d="M1018.56 12.096 L1053.32 12.096 L1053.32 18.9825 L1026.75 18.9825 L1026.75 36.8065 L1050.73 36.8065 L1050.73 43.6931 L1026.75 43.6931 L1026.75 72.576 L1018.56 72.576 L1018.56 12.096 Z" fill="#000000" fill-rule="nonzero" fill-opacity="1"></path><path clip-path="url(#clip080)" d="M1059.92 27.2059 L1067.38 27.2059 L1067.38 72.576 L1059.92 72.576 L1059.92 27.2059 M1059.92 9.54393 L1067.38 9.54393 L1067.38 18.9825 L1059.92 18.9825 L1059.92 9.54393 Z" fill="#000000" fill-rule="nonzero" fill-opacity="1"></path><path clip-path="url(#clip080)" d="M1090.35 14.324 L1090.35 27.2059 L1105.7 27.2059 L1105.7 32.9987 L1090.35 32.9987 L1090.35 57.6282 Q1090.35 63.1779 1091.84 64.7578 Q1093.38 66.3376 1098.04 66.3376 L1105.7 66.3376 L1105.7 72.576 L1098.04 72.576 Q1089.41 72.576 1086.13 69.3758 Q1082.85 66.1351 1082.85 57.6282 L1082.85 32.9987 L1077.38 32.9987 L1077.38 27.2059 L1082.85 27.2059 L1082.85 14.324 L1090.35 14.324 Z" fill="#000000" fill-rule="nonzero" fill-opacity="1"></path><path clip-path="url(#clip080)" d="M1153.22 45.1919 L1153.22 72.576 L1145.76 72.576 L1145.76 45.4349 Q1145.76 38.994 1143.25 35.7938 Q1140.74 32.5936 1135.72 32.5936 Q1129.68 32.5936 1126.2 36.4419 Q1122.71 40.2903 1122.71 46.9338 L1122.71 72.576 L1115.22 72.576 L1115.22 27.2059 L1122.71 27.2059 L1122.71 34.2544 Q1125.39 30.163 1128.99 28.1376 Q1132.64 26.1121 1137.38 26.1121 Q1145.19 26.1121 1149.21 30.9732 Q1153.22 35.7938 1153.22 45.1919 Z" fill="#000000" fill-rule="nonzero" fill-opacity="1"></path><path clip-path="url(#clip080)" d="M1206.89 48.0275 L1206.89 51.6733 L1172.62 51.6733 Q1173.11 59.3701 1177.24 63.421 Q1181.41 67.4314 1188.82 67.4314 Q1193.12 67.4314 1197.13 66.3781 Q1201.18 65.3249 1205.15 63.2184 L1205.15 70.267 Q1201.14 71.9684 1196.92 72.8596 Q1192.71 73.7508 1188.38 73.7508 Q1177.52 73.7508 1171.16 67.4314 Q1164.84 61.1119 1164.84 50.3365 Q1164.84 39.1965 1170.84 32.6746 Q1176.87 26.1121 1187.08 26.1121 Q1196.24 26.1121 1201.54 32.0264 Q1206.89 37.9003 1206.89 48.0275 M1199.44 45.84 Q1199.36 39.7232 1195.99 36.0774 Q1192.67 32.4315 1187.16 32.4315 Q1180.92 32.4315 1177.16 35.9558 Q1173.43 39.4801 1172.86 45.8805 L1199.44 45.84 Z" fill="#000000" fill-rule="nonzero" fill-opacity="1"></path><path clip-path="url(#clip080)" d="M1248.05 28.5427 L1248.05 35.5912 Q1244.89 33.9709 1241.48 33.1607 Q1238.08 32.3505 1234.44 32.3505 Q1228.89 32.3505 1226.09 34.0519 Q1223.34 35.7533 1223.34 39.156 Q1223.34 41.7486 1225.32 43.2475 Q1227.31 44.7058 1233.3 46.0426 L1235.85 46.6097 Q1243.79 48.3111 1247.12 51.4303 Q1250.48 54.509 1250.48 60.0587 Q1250.48 66.3781 1245.45 70.0644 Q1240.47 73.7508 1231.72 73.7508 Q1228.08 73.7508 1224.11 73.0216 Q1220.18 72.3329 1215.8 70.9151 L1215.8 63.2184 Q1219.93 65.3654 1223.94 66.4591 Q1227.95 67.5124 1231.88 67.5124 Q1237.15 67.5124 1239.99 65.73 Q1242.82 63.9071 1242.82 60.6258 Q1242.82 57.5877 1240.76 55.9673 Q1238.73 54.3469 1231.8 52.8481 L1229.21 52.2405 Q1222.28 50.7821 1219.2 47.7845 Q1216.13 44.7463 1216.13 39.4801 Q1216.13 33.0797 1220.66 29.5959 Q1225.2 26.1121 1233.55 26.1121 Q1237.68 26.1121 1241.32 26.7198 Q1244.97 27.3274 1248.05 28.5427 Z" fill="#000000" fill-rule="nonzero" fill-opacity="1"></path><path clip-path="url(#clip080)" d="M1291.27 28.5427 L1291.27 35.5912 Q1288.11 33.9709 1284.71 33.1607 Q1281.31 32.3505 1277.66 32.3505 Q1272.11 32.3505 1269.31 34.0519 Q1266.56 35.7533 1266.56 39.156 Q1266.56 41.7486 1268.54 43.2475 Q1270.53 44.7058 1276.53 46.0426 L1279.08 46.6097 Q1287.02 48.3111 1290.34 51.4303 Q1293.7 54.509 1293.7 60.0587 Q1293.7 66.3781 1288.68 70.0644 Q1283.7 73.7508 1274.95 73.7508 Q1271.3 73.7508 1267.33 73.0216 Q1263.4 72.3329 1259.03 70.9151 L1259.03 63.2184 Q1263.16 65.3654 1267.17 66.4591 Q1271.18 67.5124 1275.11 67.5124 Q1280.37 67.5124 1283.21 65.73 Q1286.04 63.9071 1286.04 60.6258 Q1286.04 57.5877 1283.98 55.9673 Q1281.95 54.3469 1275.03 52.8481 L1272.43 52.2405 Q1265.51 50.7821 1262.43 47.7845 Q1259.35 44.7463 1259.35 39.4801 Q1259.35 33.0797 1263.89 29.5959 Q1268.42 26.1121 1276.77 26.1121 Q1280.9 26.1121 1284.55 26.7198 Q1288.19 27.3274 1291.27 28.5427 Z" fill="#000000" fill-rule="nonzero" fill-opacity="1"></path><path clip-path="url(#clip080)" d="M1332.27 12.096 L1370.51 12.096 L1370.51 18.9825 L1340.45 18.9825 L1340.45 36.8875 L1369.25 36.8875 L1369.25 43.7741 L1340.45 43.7741 L1340.45 65.6895 L1371.24 65.6895 L1371.24 72.576 L1332.27 72.576 L1332.27 12.096 Z" fill="#000000" fill-rule="nonzero" fill-opacity="1"></path><path clip-path="url(#clip080)" d="M1379.01 27.2059 L1386.91 27.2059 L1401.09 65.2844 L1415.27 27.2059 L1423.17 27.2059 L1406.15 72.576 L1396.03 72.576 L1379.01 27.2059 Z" fill="#000000" fill-rule="nonzero" fill-opacity="1"></path><path clip-path="url(#clip080)" d="M1451.04 32.4315 Q1445.04 32.4315 1441.56 37.1306 Q1438.08 41.7891 1438.08 49.9314 Q1438.08 58.0738 1441.52 62.7728 Q1445 67.4314 1451.04 67.4314 Q1456.99 67.4314 1460.48 62.7323 Q1463.96 58.0333 1463.96 49.9314 Q1463.96 41.8701 1460.48 37.1711 Q1456.99 32.4315 1451.04 32.4315 M1451.04 26.1121 Q1460.76 26.1121 1466.31 32.4315 Q1471.86 38.7509 1471.86 49.9314 Q1471.86 61.0714 1466.31 67.4314 Q1460.76 73.7508 1451.04 73.7508 Q1441.28 73.7508 1435.73 67.4314 Q1430.22 61.0714 1430.22 49.9314 Q1430.22 38.7509 1435.73 32.4315 Q1441.28 26.1121 1451.04 26.1121 Z" fill="#000000" fill-rule="nonzero" fill-opacity="1"></path><path clip-path="url(#clip080)" d="M1484.22 9.54393 L1491.67 9.54393 L1491.67 72.576 L1484.22 72.576 L1484.22 9.54393 Z" fill="#000000" fill-rule="nonzero" fill-opacity="1"></path><path clip-path="url(#clip080)" d="M1506.5 54.671 L1506.5 27.2059 L1513.95 27.2059 L1513.95 54.3874 Q1513.95 60.8284 1516.46 64.0691 Q1518.97 67.2693 1523.99 67.2693 Q1530.03 67.2693 1533.51 63.421 Q1537.04 59.5726 1537.04 52.9291 L1537.04 27.2059 L1544.49 27.2059 L1544.49 72.576 L1537.04 72.576 L1537.04 65.6084 Q1534.32 69.7404 1530.72 71.7658 Q1527.15 73.7508 1522.42 73.7508 Q1514.6 73.7508 1510.55 68.8897 Q1506.5 64.0286 1506.5 54.671 M1525.25 26.1121 L1525.25 26.1121 Z" fill="#000000" fill-rule="nonzero" fill-opacity="1"></path><path clip-path="url(#clip080)" d="M1567.22 14.324 L1567.22 27.2059 L1582.57 27.2059 L1582.57 32.9987 L1567.22 32.9987 L1567.22 57.6282 Q1567.22 63.1779 1568.72 64.7578 Q1570.26 66.3376 1574.91 66.3376 L1582.57 66.3376 L1582.57 72.576 L1574.91 72.576 Q1566.29 72.576 1563.01 69.3758 Q1559.72 66.1351 1559.72 57.6282 L1559.72 32.9987 L1554.26 32.9987 L1554.26 27.2059 L1559.72 27.2059 L1559.72 14.324 L1567.22 14.324 Z" fill="#000000" fill-rule="nonzero" fill-opacity="1"></path><path clip-path="url(#clip080)" d="M1592.37 27.2059 L1599.83 27.2059 L1599.83 72.576 L1592.37 72.576 L1592.37 27.2059 M1592.37 9.54393 L1599.83 9.54393 L1599.83 18.9825 L1592.37 18.9825 L1592.37 9.54393 Z" fill="#000000" fill-rule="nonzero" fill-opacity="1"></path><path clip-path="url(#clip080)" d="M1633 32.4315 Q1627.01 32.4315 1623.53 37.1306 Q1620.04 41.7891 1620.04 49.9314 Q1620.04 58.0738 1623.49 62.7728 Q1626.97 67.4314 1633 67.4314 Q1638.96 67.4314 1642.44 62.7323 Q1645.93 58.0333 1645.93 49.9314 Q1645.93 41.8701 1642.44 37.1711 Q1638.96 32.4315 1633 32.4315 M1633 26.1121 Q1642.73 26.1121 1648.28 32.4315 Q1653.83 38.7509 1653.83 49.9314 Q1653.83 61.0714 1648.28 67.4314 Q1642.73 73.7508 1633 73.7508 Q1623.24 73.7508 1617.69 67.4314 Q1612.18 61.0714 1612.18 49.9314 Q1612.18 38.7509 1617.69 32.4315 Q1623.24 26.1121 1633 26.1121 Z" fill="#000000" fill-rule="nonzero" fill-opacity="1"></path><path clip-path="url(#clip080)" d="M1703.9 45.1919 L1703.9 72.576 L1696.44 72.576 L1696.44 45.4349 Q1696.44 38.994 1693.93 35.7938 Q1691.42 32.5936 1686.4 32.5936 Q1680.36 32.5936 1676.88 36.4419 Q1673.39 40.2903 1673.39 46.9338 L1673.39 72.576 L1665.9 72.576 L1665.9 27.2059 L1673.39 27.2059 L1673.39 34.2544 Q1676.07 30.163 1679.67 28.1376 Q1683.32 26.1121 1688.06 26.1121 Q1695.87 26.1121 1699.89 30.9732 Q1703.9 35.7938 1703.9 45.1919 Z" fill="#000000" fill-rule="nonzero" fill-opacity="1"></path><polyline clip-path="url(#clip082)" style="stroke:#0000ff; stroke-linecap:round; stroke-linejoin:round; stroke-width:8; stroke-opacity:1; fill:none" points="425.828,1267.7 429.577,1224.56 433.326,1183.26 437.075,1146.09 440.824,1109.13 444.573,1073.34 448.322,1038.47 452.071,1008.19 455.82,978.019 459.57,948.313 463.319,919.672 467.068,894.334 470.817,870.891 474.566,846.487 478.315,821.087 482.064,799.483 485.813,776.843 489.562,754.802 493.311,734.021 497.061,716.732 500.81,696.555 504.559,678.242 508.308,659.359 512.057,639.993 515.806,621.99 519.555,607.443 523.304,590.136 527.053,577.423 530.803,561.718 534.552,546.226 538.301,526.64 542.05,512.279 545.799,498.219 549.548,489.018 553.297,477.705 557.046,467.944 560.795,459.383 564.544,446.893 568.294,432.345 572.043,422.912 575.792,409.205 579.541,402.197 583.29,391.549 587.039,379.124 590.788,375.493 594.537,364.594 598.286,359.03 602.036,351.428 605.785,344.752 609.534,337.768 613.283,329.616 617.032,321.968 620.781,316.059 624.53,314.343 628.279,301.988 632.028,294.713 635.778,286.878 639.527,282.225 643.276,278.551 647.025,272.139 650.774,270.711 654.523,264.948 658.272,256.68 662.021,247.828 665.77,245.76 669.519,238.611 673.269,234.046 677.018,228.241 680.767,226.964 684.516,221.179 688.265,218.124 692.014,215.739 695.763,215.074 699.512,210.304 703.261,209.605 707.011,205.061 710.76,201.235 714.509,196.557 718.258,194.356 722.007,190.859 725.756,190.694 729.505,187.835 733.254,187.885 737.003,185.799 740.753,182.9 744.502,184.774 748.251,180.587 752,181.136 755.749,182.937 759.498,182.963 763.247,181.205 766.996,180.897 770.745,176.894 774.494,177.099 778.244,174.005 781.993,171.703 785.742,171.735 789.491,173.315 793.24,167.761 796.989,167.428 800.738,160.314 804.487,162.195 808.236,164.767 811.986,164.076 815.735,163.241 819.484,162.948 823.233,163.269 826.982,161.142 830.731,162.072 834.48,161.164 838.229,161.626 841.978,163.405 845.727,164.438 849.477,160.865 853.226,166.162 856.975,168.408 860.724,169.048 864.473,169.067 868.222,169.266 871.971,171.586 875.72,169.388 879.469,160.256 883.219,164.216 886.968,168.792 890.717,166.503 894.466,168.438 898.215,171.506 901.964,173.977 905.713,172.483 909.462,173.656 913.211,175.257 916.961,172.578 920.71,168.855 924.459,171.282 928.208,167.099 931.957,168.493 935.706,170.996 939.455,168.025 943.204,169.982 946.953,170.472 950.702,174.535 954.452,172.119 958.201,173.419 961.95,173.229 965.699,169.645 969.448,168.622 973.197,172.188 976.946,171.939 980.695,178.127 984.444,172.862 988.194,172.023 991.943,169.298 995.692,173.933 999.441,174.398 1003.19,180.498 1006.94,179.22 1010.69,179.658 1014.44,177.356 1018.19,181.155 1021.94,181.446 1025.68,183.63 1029.43,177.642 1033.18,175.744 1036.93,176.132 1040.68,174.099 1044.43,172.46 1048.18,172.287 1051.93,179.48 1055.68,180.563 1059.43,180.889 1063.18,177.38 1066.92,173.849 1070.67,180.551 1074.42,179.888 1078.17,179.57 1081.92,179.221 1085.67,171.782 1089.42,170.649 1093.17,178.983 1096.92,178.209 1100.67,178.687 1104.42,179.762 1108.16,180.176 1111.91,183.985 1115.66,181.236 1119.41,178.477 1123.16,179.352 1126.91,190.769 1130.66,189.88 1134.41,184.033 1138.16,180.436 1141.91,179.948 1145.66,178.296 1149.41,173.825 1153.15,173.769 1156.9,175.306 1160.65,177.262 1164.4,175.905 1168.15,177.234 1171.9,175.542 1175.65,172.888 1179.4,175.457 1183.15,173.686 1186.9,175.969 1190.65,168.624 1194.39,169.869 1198.14,172.913 1201.89,172.466 1205.64,168.743 1209.39,169.439 1213.14,173.387 1216.89,171.76 1220.64,168.235 1224.39,165.76 1228.14,166.467 1231.89,172.982 1235.63,171.469 1239.38,174.848 1243.13,178.796 1246.88,174.685 1250.63,172.228 1254.38,172.299 1258.13,176.409 1261.88,177.36 1265.63,177.221 1269.38,177.307 1273.13,173.717 1276.87,168.999 1280.62,166.132 1284.37,163.575 1288.12,170.482 1291.87,172.133 1295.62,177.269 1299.37,176.905 1303.12,177.146 1306.87,180.248 1310.62,177.238 1314.37,177.467 1318.11,174.808 1321.86,174.895 1325.61,175.533 1329.36,172.373 1333.11,170.05 1336.86,170.966 1340.61,171.945 1344.36,167.443 1348.11,168.672 1351.86,164.076 1355.61,163.435 1359.36,164.704 1363.1,167.829 1366.85,168.112 1370.6,168.685 1374.35,173.144 1378.1,168.678 1381.85,176.494 1385.6,176.892 1389.35,173.671 1393.1,174.602 1396.85,176.503 1400.6,179.811 1404.34,177.619 1408.09,179.639 1411.84,178.249 1415.59,171.43 1419.34,169.062 1423.09,168.326 1426.84,168.144 1430.59,173.502 1434.34,172.656 1438.09,172.22 1441.84,170.274 1445.58,171.728 1449.33,163.382 1453.08,169.069 1456.83,173.943 1460.58,175.779 1464.33,174.198 1468.08,175.036 1471.83,181.5 1475.58,177.606 1479.33,180.631 1483.08,183.208 1486.82,186.326 1490.57,186.276 1494.32,184.202 1498.07,186.886 1501.82,187.353 1505.57,182.47 1509.32,181.551 1513.07,172.079 1516.82,171.481 1520.57,172.761 1524.32,173.237 1528.06,176.151 1531.81,173.412 1535.56,172.3 1539.31,173.914 1543.06,175.2 1546.81,174.241 1550.56,173.929 1554.31,173.614 1558.06,170.076 1561.81,167.493 1565.56,167.257 1569.31,173.355 1573.05,175.003 1576.8,181.101 1580.55,180.645 1584.3,179.18 1588.05,179.896 1591.8,175.774 1595.55,179.797 1599.3,178.347 1603.05,176.201 1606.8,176.969 1610.55,180.112 1614.29,182.437 1618.04,176.774 1621.79,171.671 1625.54,169.021 1629.29,172.876 1633.04,172.337 1636.79,171.37 1640.54,174.549 1644.29,174.749 1648.04,174.278 1651.79,172.853 1655.53,175.738 1659.28,174.785 1663.03,175.748 1666.78,180.17 1670.53,178.307 1674.28,175.851 1678.03,177.767 1681.78,177.208 1685.53,175.295 1689.28,171.449 1693.03,172.085 1696.77,174.949 1700.52,177.704 1704.27,179.971 1708.02,182.56 1711.77,177.093 1715.52,176.799 1719.27,173.284 1723.02,172.087 1726.77,173.789 1730.52,176.697 1734.27,174.258 1738.01,174.636 1741.76,177.482 1745.51,173.785 1749.26,175.727 1753.01,175.625 1756.76,175.021 1760.51,175.869 1764.26,181.951 1768.01,177.397 1771.76,176.742 1775.51,176.66 1779.26,174.037 1783,168.119 1786.75,172.936 1790.5,170.952 1794.25,176.071 1798,172.457 1801.75,174.537 1805.5,173.651 1809.25,169.641 1813,169.115 1816.75,167.606 1820.5,169.191 1824.24,167.975 1827.99,173.74 1831.74,172.14 1835.49,171.423 1839.24,169.164 1842.99,174.841 1846.74,175.547 1850.49,174.105 1854.24,177.678 1857.99,175.919 1861.74,174.828 1865.48,174.282 1869.23,169.885 1872.98,168.843 1876.73,170.692 1880.48,178.039 1884.23,176.59 1887.98,182.927 1891.73,179.398 1895.48,177.814 1899.23,178.946 1902.98,174.401 1906.72,180.392 1910.47,178.848 1914.22,177.179 1917.97,179.641 1921.72,176.242 1925.47,175.666 1929.22,176.547 1932.97,172.905 1936.72,178.057 1940.47,181.129 1944.22,181.398 1947.96,178.15 1951.71,178.091 1955.46,174.656 1959.21,176.78 1962.96,174.014 1966.71,178.073 1970.46,173.566 1974.21,169.005 1977.96,167.548 1981.71,165.855 1985.46,169.727 1989.21,171.535 1992.95,171.531 1996.7,176.473 2000.45,182.038 2004.2,182.673 2007.95,182.233 2011.7,175.611 2015.45,177.044 2019.2,176.193 2022.95,176.604 2026.7,180.278 2030.45,170.713 2034.19,166.615 2037.94,170.391 2041.69,172.358 2045.44,168.096 2049.19,165.611 2052.94,169.931 2056.69,172.712 2060.44,169.748 2064.19,162.859 2067.94,167.652 2071.69,169.089 2075.43,175.435 2079.18,176.347 2082.93,180.887 2086.68,179.585 2090.43,179.764 2094.18,180.555 2097.93,186.443 2101.68,183.774 2105.43,183.048 2109.18,184.241 2112.93,183.349 2116.67,180.62 2120.42,175.679 2124.17,174.56 2127.92,173.202 2131.67,171.766 2135.42,172.004 2139.17,175.023 2142.92,176.962 2146.67,178.821 2150.42,178.715 2154.17,179.87 2157.91,182.43 2161.66,179.517 2165.41,177.136 2169.16,181.028 2172.91,178.1 2176.66,180.065 2180.41,174.772 2184.16,177.476 2187.91,170.238 2191.66,163.106 2195.41,164.82 2199.16,165.761 2202.9,165.99 2206.65,163.746 2210.4,162.704 2214.15,164.059 2217.9,168.526 2221.65,170.297 2225.4,170.58 2229.15,171.735 2232.9,170.788 2236.65,162.81 2240.4,170.005 2244.14,174.324 2247.89,170.982 2251.64,168.698 2255.39,169.77 2259.14,171.651 2262.89,173.57 2266.64,172.879 2270.39,174.151 2274.14,170.063 2277.89,167.119 2281.64,167.58 2285.38,166.459 2289.13,166.474 2292.88,171.022 2296.63,175.647 "></polyline>
<polyline clip-path="url(#clip082)" style="stroke:#ff0000; stroke-linecap:round; stroke-linejoin:round; stroke-width:8; stroke-opacity:1; fill:none" points="425.828,1386.4 429.577,1369.67 433.326,1349.29 437.075,1378.44 440.824,1326.06 444.573,1289.32 448.322,1260.81 452.071,1259.99 455.82,1225.19 459.57,1190.24 463.319,1179 467.068,1167.29 470.817,1260.64 474.566,1203.55 478.315,1167.2 482.064,1203.75 485.813,1108.36 489.562,1128 493.311,1108.38 497.061,1058 500.81,1033.25 504.559,1046.16 508.308,1019.87 512.057,987.032 515.806,949.24 519.555,934.815 523.304,976.618 527.053,952.276 530.803,940.891 534.552,951.023 538.301,953.9 542.05,913.279 545.799,916.624 549.548,854.956 553.297,887.505 557.046,847.296 560.795,838.374 564.544,825.862 568.294,842.777 572.043,872.15 575.792,821.474 579.541,813.6 583.29,837.941 587.039,803.03 590.788,840.094 594.537,827.352 598.286,761.565 602.036,766.472 605.785,767.418 609.534,823.755 613.283,832.426 617.032,844.615 620.781,798.493 624.53,720.895 628.279,715.89 632.028,681.958 635.778,686.618 639.527,666.678 643.276,642.118 647.025,656.809 650.774,637.974 654.523,635.531 658.272,659.971 662.021,691.177 665.77,647.025 669.519,697.353 673.269,661.612 677.018,607.652 680.767,587.753 684.516,557.983 688.265,580.406 692.014,607.003 695.763,601.104 699.512,671.164 703.261,629.789 707.011,585.457 710.76,552.293 714.509,550.18 718.258,585.437 722.007,588.664 725.756,564.211 729.505,588.55 733.254,630.818 737.003,637.445 740.753,662.494 744.502,595.172 748.251,488.39 752,562.009 755.749,525.888 759.498,623.991 763.247,622.513 766.996,581.753 770.745,548.079 774.494,504.563 778.244,561.162 781.993,558.481 785.742,536.862 789.491,496.063 793.24,489.727 796.989,521.853 800.738,523.468 804.487,531.829 808.236,500.126 811.986,574.121 815.735,532.045 819.484,507.598 823.233,473.518 826.982,474.538 830.731,453.97 834.48,500.603 838.229,488.506 841.978,528.721 845.727,570.558 849.477,481.009 853.226,496.016 856.975,512.841 860.724,491.611 864.473,478.798 868.222,385.242 871.971,396.798 875.72,424.102 879.469,429.229 883.219,416.016 886.968,420.457 890.717,451.93 894.466,540.354 898.215,467.658 901.964,564.609 905.713,564.234 909.462,518.119 913.211,462.798 916.961,449.794 920.71,455.811 924.459,506.062 928.208,452.861 931.957,421.115 935.706,472.186 939.455,440.673 943.204,466.869 946.953,464.463 950.702,424.268 954.452,513.697 958.201,484.877 961.95,432.769 965.699,447.364 969.448,442.241 973.197,500.158 976.946,542.942 980.695,515.776 984.444,476.799 988.194,454.327 991.943,486.132 995.692,430.11 999.441,435.41 1003.19,501.476 1006.94,509.333 1010.69,490.249 1014.44,504.673 1018.19,512.675 1021.94,447.113 1025.68,447.831 1029.43,474.949 1033.18,437.605 1036.93,442.293 1040.68,407.44 1044.43,390.592 1048.18,386.923 1051.93,405.306 1055.68,470.029 1059.43,480.237 1063.18,452.301 1066.92,497.142 1070.67,522.333 1074.42,470.744 1078.17,431.381 1081.92,446.572 1085.67,471.513 1089.42,498.488 1093.17,480.585 1096.92,457.953 1100.67,424.432 1104.42,455.432 1108.16,426.589 1111.91,437.869 1115.66,461.656 1119.41,514.495 1123.16,494.616 1126.91,480.774 1130.66,460.529 1134.41,459.769 1138.16,468.538 1141.91,449.192 1145.66,404.312 1149.41,385.616 1153.15,464.621 1156.9,454.273 1160.65,452.647 1164.4,420.771 1168.15,453.489 1171.9,427.972 1175.65,467.192 1179.4,390.234 1183.15,434.117 1186.9,450.193 1190.65,524.914 1194.39,446.696 1198.14,476.07 1201.89,429.719 1205.64,447.391 1209.39,440.332 1213.14,538.962 1216.89,484.323 1220.64,558.767 1224.39,567.539 1228.14,524.713 1231.89,464.905 1235.63,519.642 1239.38,443.925 1243.13,424.725 1246.88,451.985 1250.63,535.327 1254.38,423.801 1258.13,491.297 1261.88,448.618 1265.63,464.807 1269.38,490.445 1273.13,408.347 1276.87,428.207 1280.62,439.685 1284.37,477.184 1288.12,416.983 1291.87,455.898 1295.62,434.533 1299.37,432.901 1303.12,407.29 1306.87,399.775 1310.62,411.27 1314.37,463.987 1318.11,414.67 1321.86,468.248 1325.61,414.521 1329.36,524.886 1333.11,426.214 1336.86,447.704 1340.61,447.762 1344.36,453.045 1348.11,427.413 1351.86,415.325 1355.61,462.576 1359.36,496.603 1363.1,472.766 1366.85,504.741 1370.6,432.374 1374.35,415.517 1378.1,444.379 1381.85,516.232 1385.6,459.758 1389.35,451.211 1393.1,467.546 1396.85,470.721 1400.6,456.642 1404.34,496.026 1408.09,430.929 1411.84,447.923 1415.59,432.174 1419.34,436.733 1423.09,505.635 1426.84,453.044 1430.59,518.375 1434.34,499.429 1438.09,445.918 1441.84,446.833 1445.58,472.301 1449.33,398.603 1453.08,434.01 1456.83,443.096 1460.58,501.311 1464.33,474.827 1468.08,481.173 1471.83,480.933 1475.58,494.797 1479.33,533.679 1483.08,458.055 1486.82,495.778 1490.57,490.899 1494.32,461.229 1498.07,459.534 1501.82,474.148 1505.57,481.89 1509.32,490.538 1513.07,477.855 1516.82,527.626 1520.57,429.539 1524.32,394.696 1528.06,464.741 1531.81,572.074 1535.56,494.298 1539.31,461.293 1543.06,458.193 1546.81,478.201 1550.56,452.549 1554.31,507.782 1558.06,492.268 1561.81,434.367 1565.56,446.219 1569.31,418.535 1573.05,485.997 1576.8,501.862 1580.55,487.515 1584.3,482.606 1588.05,492.846 1591.8,461.571 1595.55,447.914 1599.3,430.736 1603.05,459.714 1606.8,443.688 1610.55,481.217 1614.29,484.078 1618.04,472.832 1621.79,488.297 1625.54,533.436 1629.29,431.323 1633.04,412.585 1636.79,591.297 1640.54,559.72 1644.29,492.541 1648.04,517.941 1651.79,525.548 1655.53,494.482 1659.28,406.63 1663.03,425.76 1666.78,399.997 1670.53,426.484 1674.28,462.558 1678.03,524.618 1681.78,526.975 1685.53,518.908 1689.28,455.841 1693.03,455.916 1696.77,471.817 1700.52,484.652 1704.27,504.802 1708.02,510.67 1711.77,466.067 1715.52,424.416 1719.27,445.969 1723.02,412.41 1726.77,426.161 1730.52,458.669 1734.27,446.682 1738.01,404.543 1741.76,436.458 1745.51,500.886 1749.26,527.78 1753.01,509.56 1756.76,494.865 1760.51,452.656 1764.26,517.023 1768.01,516.695 1771.76,506.03 1775.51,529.142 1779.26,527.075 1783,515.964 1786.75,450.132 1790.5,435.243 1794.25,454.902 1798,504.504 1801.75,461.512 1805.5,438.598 1809.25,440.362 1813,432.782 1816.75,391.357 1820.5,425.725 1824.24,446.453 1827.99,453.424 1831.74,445.314 1835.49,462.121 1839.24,483.315 1842.99,508.152 1846.74,459.516 1850.49,406.218 1854.24,468.018 1857.99,419.492 1861.74,443.55 1865.48,412.681 1869.23,477.167 1872.98,463.392 1876.73,412.403 1880.48,506.491 1884.23,485.209 1887.98,505.97 1891.73,480.861 1895.48,469.385 1899.23,422.321 1902.98,485.18 1906.72,561.74 1910.47,494.455 1914.22,479.179 1917.97,472.888 1921.72,506.886 1925.47,460.625 1929.22,469.078 1932.97,513.358 1936.72,450.539 1940.47,470.543 1944.22,459.154 1947.96,459.036 1951.71,493.855 1955.46,465.619 1959.21,446.357 1962.96,431.769 1966.71,413.355 1970.46,409.076 1974.21,440.586 1977.96,428.882 1981.71,437.116 1985.46,433.739 1989.21,496.671 1992.95,483.392 1996.7,454.837 2000.45,470.555 2004.2,506.656 2007.95,544.654 2011.7,507.83 2015.45,466.993 2019.2,454.709 2022.95,473.675 2026.7,496.97 2030.45,522.203 2034.19,483.891 2037.94,506.333 2041.69,482.676 2045.44,443.199 2049.19,440.567 2052.94,443.783 2056.69,447.672 2060.44,377.263 2064.19,489.246 2067.94,451.662 2071.69,520.812 2075.43,435.763 2079.18,426.999 2082.93,482.437 2086.68,430.294 2090.43,486.861 2094.18,483.945 2097.93,478.463 2101.68,540.664 2105.43,514.289 2109.18,550.851 2112.93,476.282 2116.67,545.613 2120.42,506.536 2124.17,614.891 2127.92,495.858 2131.67,575.966 2135.42,578.546 2139.17,567.205 2142.92,531.238 2146.67,513.689 2150.42,536.548 2154.17,470.056 2157.91,437.339 2161.66,432.704 2165.41,403.874 2169.16,514.313 2172.91,531.443 2176.66,485.123 2180.41,465.833 2184.16,414.69 2187.91,408.213 2191.66,439.176 2195.41,466.353 2199.16,466.66 2202.9,438.425 2206.65,430.008 2210.4,409.488 2214.15,418.971 2217.9,434.418 2221.65,464.429 2225.4,467.257 2229.15,440.004 2232.9,423.768 2236.65,480.086 2240.4,461.719 2244.14,504.87 2247.89,567.469 2251.64,498.479 2255.39,459.439 2259.14,489.348 2262.89,451.327 2266.64,513.189 2270.39,448.593 2274.14,528.402 2277.89,472.505 2281.64,472.206 2285.38,455.629 2289.13,493.071 2292.88,488.373 2296.63,505.085 "></polyline>
<path clip-path="url(#clip080)" d="M1877.33 1379.86 L2286.65 1379.86 L2286.65 1224.34 L1877.33 1224.34  Z" fill="#ffffff" fill-rule="evenodd" fill-opacity="1"></path>
<polyline clip-path="url(#clip080)" style="stroke:#000000; stroke-linecap:round; stroke-linejoin:round; stroke-width:4; stroke-opacity:1; fill:none" points="1877.33,1379.86 2286.65,1379.86 2286.65,1224.34 1877.33,1224.34 1877.33,1379.86 "></polyline>
<polyline clip-path="url(#clip080)" style="stroke:#0000ff; stroke-linecap:round; stroke-linejoin:round; stroke-width:8; stroke-opacity:1; fill:none" points="1899.37,1276.18 2031.57,1276.18 "></polyline>
<path clip-path="url(#clip080)" d="M2053.6 1258.9 L2060.57 1258.9 L2069.39 1282.41 L2078.26 1258.9 L2085.22 1258.9 L2085.22 1293.46 L2080.66 1293.46 L2080.66 1263.11 L2071.75 1286.81 L2067.05 1286.81 L2058.14 1263.11 L2058.14 1293.46 L2053.6 1293.46 L2053.6 1258.9 Z" fill="#000000" fill-rule="nonzero" fill-opacity="1"></path><path clip-path="url(#clip080)" d="M2116.5 1279.43 L2116.5 1281.51 L2096.91 1281.51 Q2097.19 1285.91 2099.55 1288.22 Q2101.94 1290.52 2106.17 1290.52 Q2108.63 1290.52 2110.92 1289.91 Q2113.23 1289.31 2115.5 1288.11 L2115.5 1292.14 Q2113.21 1293.11 2110.8 1293.62 Q2108.39 1294.13 2105.92 1294.13 Q2099.71 1294.13 2096.08 1290.52 Q2092.47 1286.91 2092.47 1280.75 Q2092.47 1274.38 2095.89 1270.66 Q2099.34 1266.91 2105.18 1266.91 Q2110.41 1266.91 2113.44 1270.29 Q2116.5 1273.64 2116.5 1279.43 M2112.24 1278.18 Q2112.19 1274.68 2110.27 1272.6 Q2108.37 1270.52 2105.22 1270.52 Q2101.66 1270.52 2099.51 1272.53 Q2097.38 1274.54 2097.05 1278.2 L2112.24 1278.18 Z" fill="#000000" fill-rule="nonzero" fill-opacity="1"></path><path clip-path="url(#clip080)" d="M2135.27 1280.42 Q2130.11 1280.42 2128.12 1281.6 Q2126.13 1282.79 2126.13 1285.63 Q2126.13 1287.9 2127.61 1289.24 Q2129.11 1290.56 2131.68 1290.56 Q2135.22 1290.56 2137.35 1288.06 Q2139.51 1285.54 2139.51 1281.37 L2139.51 1280.42 L2135.27 1280.42 M2143.76 1278.66 L2143.76 1293.46 L2139.51 1293.46 L2139.51 1289.52 Q2138.05 1291.88 2135.87 1293.02 Q2133.7 1294.13 2130.55 1294.13 Q2126.57 1294.13 2124.2 1291.91 Q2121.87 1289.66 2121.87 1285.91 Q2121.87 1281.54 2124.78 1279.31 Q2127.72 1277.09 2133.53 1277.09 L2139.51 1277.09 L2139.51 1276.67 Q2139.51 1273.73 2137.56 1272.14 Q2135.64 1270.52 2132.14 1270.52 Q2129.92 1270.52 2127.82 1271.05 Q2125.71 1271.58 2123.76 1272.65 L2123.76 1268.71 Q2126.1 1267.81 2128.3 1267.37 Q2130.5 1266.91 2132.58 1266.91 Q2138.21 1266.91 2140.99 1269.82 Q2143.76 1272.74 2143.76 1278.66 Z" fill="#000000" fill-rule="nonzero" fill-opacity="1"></path><path clip-path="url(#clip080)" d="M2174.09 1277.81 L2174.09 1293.46 L2169.83 1293.46 L2169.83 1277.95 Q2169.83 1274.27 2168.39 1272.44 Q2166.96 1270.61 2164.09 1270.61 Q2160.64 1270.61 2158.65 1272.81 Q2156.66 1275.01 2156.66 1278.8 L2156.66 1293.46 L2152.38 1293.46 L2152.38 1267.53 L2156.66 1267.53 L2156.66 1271.56 Q2158.19 1269.22 2160.25 1268.06 Q2162.33 1266.91 2165.04 1266.91 Q2169.51 1266.91 2171.8 1269.68 Q2174.09 1272.44 2174.09 1277.81 Z" fill="#000000" fill-rule="nonzero" fill-opacity="1"></path><polyline clip-path="url(#clip080)" style="stroke:#ff0000; stroke-linecap:round; stroke-linejoin:round; stroke-width:8; stroke-opacity:1; fill:none" points="1899.37,1328.02 2031.57,1328.02 "></polyline>
<path clip-path="url(#clip080)" d="M2053.6 1310.74 L2060.57 1310.74 L2069.39 1334.25 L2078.26 1310.74 L2085.22 1310.74 L2085.22 1345.3 L2080.66 1345.3 L2080.66 1314.95 L2071.75 1338.65 L2067.05 1338.65 L2058.14 1314.95 L2058.14 1345.3 L2053.6 1345.3 L2053.6 1310.74 Z" fill="#000000" fill-rule="nonzero" fill-opacity="1"></path><path clip-path="url(#clip080)" d="M2094.32 1319.37 L2098.58 1319.37 L2098.58 1345.3 L2094.32 1345.3 L2094.32 1319.37 M2094.32 1309.28 L2098.58 1309.28 L2098.58 1314.67 L2094.32 1314.67 L2094.32 1309.28 Z" fill="#000000" fill-rule="nonzero" fill-opacity="1"></path><path clip-path="url(#clip080)" d="M2129.04 1329.65 L2129.04 1345.3 L2124.78 1345.3 L2124.78 1329.79 Q2124.78 1326.11 2123.35 1324.28 Q2121.91 1322.45 2119.04 1322.45 Q2115.59 1322.45 2113.6 1324.65 Q2111.61 1326.85 2111.61 1330.64 L2111.61 1345.3 L2107.33 1345.3 L2107.33 1319.37 L2111.61 1319.37 L2111.61 1323.4 Q2113.14 1321.06 2115.2 1319.9 Q2117.28 1318.75 2119.99 1318.75 Q2124.46 1318.75 2126.75 1321.52 Q2129.04 1324.28 2129.04 1329.65 Z" fill="#000000" fill-rule="nonzero" fill-opacity="1"></path><path clip-path="url(#clip080)" d="M2137.54 1319.37 L2141.8 1319.37 L2141.8 1345.3 L2137.54 1345.3 L2137.54 1319.37 M2137.54 1309.28 L2141.8 1309.28 L2141.8 1314.67 L2137.54 1314.67 L2137.54 1309.28 Z" fill="#000000" fill-rule="nonzero" fill-opacity="1"></path><path clip-path="url(#clip080)" d="M2170.89 1324.35 Q2172.49 1321.48 2174.71 1320.11 Q2176.94 1318.75 2179.94 1318.75 Q2184 1318.75 2186.19 1321.59 Q2188.39 1324.42 2188.39 1329.65 L2188.39 1345.3 L2184.11 1345.3 L2184.11 1329.79 Q2184.11 1326.06 2182.79 1324.25 Q2181.47 1322.45 2178.76 1322.45 Q2175.45 1322.45 2173.53 1324.65 Q2171.61 1326.85 2171.61 1330.64 L2171.61 1345.3 L2167.33 1345.3 L2167.33 1329.79 Q2167.33 1326.04 2166.01 1324.25 Q2164.69 1322.45 2161.94 1322.45 Q2158.67 1322.45 2156.75 1324.67 Q2154.83 1326.87 2154.83 1330.64 L2154.83 1345.3 L2150.55 1345.3 L2150.55 1319.37 L2154.83 1319.37 L2154.83 1323.4 Q2156.29 1321.01 2158.32 1319.88 Q2160.36 1318.75 2163.16 1318.75 Q2165.99 1318.75 2167.95 1320.18 Q2169.94 1321.62 2170.89 1324.35 Z" fill="#000000" fill-rule="nonzero" fill-opacity="1"></path><path clip-path="url(#clip080)" d="M2196.45 1335.06 L2196.45 1319.37 L2200.71 1319.37 L2200.71 1334.9 Q2200.71 1338.58 2202.14 1340.44 Q2203.58 1342.26 2206.45 1342.26 Q2209.9 1342.26 2211.89 1340.06 Q2213.9 1337.87 2213.9 1334.07 L2213.9 1319.37 L2218.16 1319.37 L2218.16 1345.3 L2213.9 1345.3 L2213.9 1341.31 Q2212.35 1343.68 2210.29 1344.83 Q2208.25 1345.97 2205.55 1345.97 Q2201.08 1345.97 2198.76 1343.19 Q2196.45 1340.41 2196.45 1335.06 M2207.17 1318.75 L2207.17 1318.75 Z" fill="#000000" fill-rule="nonzero" fill-opacity="1"></path><path clip-path="url(#clip080)" d="M2247.12 1324.35 Q2248.72 1321.48 2250.94 1320.11 Q2253.16 1318.75 2256.17 1318.75 Q2260.22 1318.75 2262.42 1321.59 Q2264.62 1324.42 2264.62 1329.65 L2264.62 1345.3 L2260.34 1345.3 L2260.34 1329.79 Q2260.34 1326.06 2259.02 1324.25 Q2257.7 1322.45 2254.99 1322.45 Q2251.68 1322.45 2249.76 1324.65 Q2247.84 1326.85 2247.84 1330.64 L2247.84 1345.3 L2243.56 1345.3 L2243.56 1329.79 Q2243.56 1326.04 2242.24 1324.25 Q2240.92 1322.45 2238.16 1322.45 Q2234.9 1322.45 2232.98 1324.67 Q2231.06 1326.87 2231.06 1330.64 L2231.06 1345.3 L2226.77 1345.3 L2226.77 1319.37 L2231.06 1319.37 L2231.06 1323.4 Q2232.51 1321.01 2234.55 1319.88 Q2236.59 1318.75 2239.39 1318.75 Q2242.21 1318.75 2244.18 1320.18 Q2246.17 1321.62 2247.12 1324.35 Z" fill="#000000" fill-rule="nonzero" fill-opacity="1"></path></svg>